  0
SECTION
  2
HEADER
  9
$ACADVER
  1
AC1015
  9
$ACADMAINTVER
 70
6
  9
$DWGCODEPAGE
  3
ANSI_1252
  9
$INSBASE
 10
0.0
 20
0.0
 30
0.0
  9
$EXTMIN
 10
-110.5633372187
 20
-51.5250171879
 30
0.0
  9
$EXTMAX
 10
110.5633357836
 20
36.974813174
 30
0.0
  9
$LIMMIN
 10
0.0
 20
0.0
  9
$LIMMAX
 10
420.0
 20
297.0
  9
$ORTHOMODE
 70
0
  9
$REGENMODE
 70
1
  9
$FILLMODE
 70
1
  9
$QTEXTMODE
 70
0
  9
$MIRRTEXT
 70
1
  9
$LTSCALE
 40
1.0
  9
$ATTMODE
 70
1
  9
$TEXTSIZE
 40
3.5
  9
$TRACEWID
 40
1.0
  9
$TEXTSTYLE
  7
Standard
  9
$CLAYER
  8
0
  9
$CELTYPE
  6
ByLayer
  9
$CECOLOR
 62
256
  9
$CELTSCALE
 40
1.0
  9
$DISPSILH
 70
0
  9
$DIMSCALE
 40
1.0
  9
$DIMASZ
 40
3.302
  9
$DIMEXO
 40
0.0
  9
$DIMDLI
 40
3.75
  9
$DIMRND
 40
0.0
  9
$DIMDLE
 40
0.0
  9
$DIMEXE
 40
1.0
  9
$DIMTP
 40
0.0
  9
$DIMTM
 40
0.0
  9
$DIMTXT
 40
3.5
  9
$DIMCEN
 40
2.5
  9
$DIMTSZ
 40
0.0
  9
$DIMTOL
 70
0
  9
$DIMLIM
 70
0
  9
$DIMTIH
 70
1
  9
$DIMTOH
 70
1
  9
$DIMSE1
 70
0
  9
$DIMSE2
 70
0
  9
$DIMTAD
 70
1
  9
$DIMZIN
 70
1
  9
$DIMBLK
  1

  9
$DIMASO
 70
1
  9
$DIMSHO
 70
1
  9
$DIMPOST
  1

  9
$DIMAPOST
  1

  9
$DIMALT
 70
0
  9
$DIMALTD
 70
3
  9
$DIMALTF
 40
0.0393700787
  9
$DIMLFAC
 40
1.0
  9
$DIMTOFL
 70
1
  9
$DIMTVP
 40
0.0
  9
$DIMTIX
 70
0
  9
$DIMSOXD
 70
0
  9
$DIMSAH
 70
0
  9
$DIMBLK1
  1

  9
$DIMBLK2
  1

  9
$DIMSTYLE
  2
ISO-25
  9
$DIMCLRD
 70
0
  9
$DIMCLRE
 70
0
  9
$DIMCLRT
 70
0
  9
$DIMTFAC
 40
1.0
  9
$DIMGAP
 40
1.524
  9
$DIMJUST
 70
0
  9
$DIMSD1
 70
0
  9
$DIMSD2
 70
0
  9
$DIMTOLJ
 70
0
  9
$DIMTZIN
 70
1
  9
$DIMALTZ
 70
0
  9
$DIMALTTZ
 70
0
  9
$DIMUPT
 70
0
  9
$DIMDEC
 70
2
  9
$DIMTDEC
 70
2
  9
$DIMALTU
 70
2
  9
$DIMALTTD
 70
3
  9
$DIMTXSTY
  7
Standard
  9
$DIMAUNIT
 70
0
  9
$DIMADEC
 70
2
  9
$DIMALTRND
 40
0.0
  9
$DIMAZIN
 70
0
  9
$DIMDSEP
 70
44
  9
$DIMATFIT
 70
3
  9
$DIMFRAC
 70
0
  9
$DIMLDRBLK
  1

  9
$DIMLUNIT
 70
2
  9
$DIMLWD
 70
-2
  9
$DIMLWE
 70
-2
  9
$DIMTMOVE
 70
0
  9
$LUNITS
 70
2
  9
$LUPREC
 70
2
  9
$SKETCHINC
 40
1.0
  9
$FILLETRAD
 40
10.0
  9
$AUNITS
 70
0
  9
$AUPREC
 70
2
  9
$MENU
  1
.
  9
$ELEVATION
 40
0.0
  9
$PELEVATION
 40
0.0
  9
$THICKNESS
 40
0.0
  9
$LIMCHECK
 70
0
  9
$CHAMFERA
 40
0.0
  9
$CHAMFERB
 40
0.0
  9
$CHAMFERC
 40
0.0
  9
$CHAMFERD
 40
0.0
  9
$SKPOLY
 70
0
  9
$TDCREATE
 40
2461094.620810185
  9
$TDUCREATE
 40
2460486.492870914
  9
$TDUPDATE
 40
2461094.620810185
  9
$TDUUPDATE
 40
2460486.493004803
  9
$TDINDWG
 40
1.16e-08
  9
$TDUSRTIMER
 40
1.16e-08
  9
$USRTIMER
 70
1
  9
$ANGBASE
 50
0.0
  9
$ANGDIR
 70
0
  9
$PDMODE
 70
0
  9
$PDSIZE
 40
-1.0
  9
$PLINEWID
 40
0.0
  9
$SPLFRAME
 70
0
  9
$SPLINETYPE
 70
6
  9
$SPLINESEGS
 70
8
  9
$HANDSEED
  5
104
  9
$SURFTAB1
 70
6
  9
$SURFTAB2
 70
6
  9
$SURFTYPE
 70
6
  9
$SURFU
 70
6
  9
$SURFV
 70
6
  9
$UCSBASE
  2

  9
$UCSNAME
  2

  9
$UCSORG
 10
0.0
 20
0.0
 30
0.0
  9
$UCSXDIR
 10
1.0
 20
0.0
 30
0.0
  9
$UCSYDIR
 10
0.0
 20
1.0
 30
0.0
  9
$UCSORTHOREF
  2

  9
$UCSORTHOVIEW
 70
0
  9
$UCSORGTOP
 10
0.0
 20
0.0
 30
0.0
  9
$UCSORGBOTTOM
 10
0.0
 20
0.0
 30
0.0
  9
$UCSORGLEFT
 10
0.0
 20
0.0
 30
0.0
  9
$UCSORGRIGHT
 10
0.0
 20
0.0
 30
0.0
  9
$UCSORGFRONT
 10
0.0
 20
0.0
 30
0.0
  9
$UCSORGBACK
 10
0.0
 20
0.0
 30
0.0
  9
$PUCSBASE
  2

  9
$PUCSNAME
  2

  9
$PUCSORG
 10
0.0
 20
0.0
 30
0.0
  9
$PUCSXDIR
 10
1.0
 20
0.0
 30
0.0
  9
$PUCSYDIR
 10
0.0
 20
1.0
 30
0.0
  9
$PUCSORTHOREF
  2

  9
$PUCSORTHOVIEW
 70
0
  9
$PUCSORGTOP
 10
0.0
 20
0.0
 30
0.0
  9
$PUCSORGBOTTOM
 10
0.0
 20
0.0
 30
0.0
  9
$PUCSORGLEFT
 10
0.0
 20
0.0
 30
0.0
  9
$PUCSORGRIGHT
 10
0.0
 20
0.0
 30
0.0
  9
$PUCSORGFRONT
 10
0.0
 20
0.0
 30
0.0
  9
$PUCSORGBACK
 10
0.0
 20
0.0
 30
0.0
  9
$USERI1
 70
0
  9
$USERI2
 70
0
  9
$USERI3
 70
0
  9
$USERI4
 70
0
  9
$USERI5
 70
0
  9
$USERR1
 40
0.0
  9
$USERR2
 40
0.0
  9
$USERR3
 40
0.0
  9
$USERR4
 40
0.0
  9
$USERR5
 40
0.0
  9
$WORLDVIEW
 70
1
  9
$SHADEDGE
 70
3
  9
$SHADEDIF
 70
70
  9
$TILEMODE
 70
1
  9
$MAXACTVP
 70
64
  9
$PINSBASE
 10
0.0
 20
0.0
 30
0.0
  9
$PLIMCHECK
 70
0
  9
$PEXTMIN
 10
1e+20
 20
1e+20
 30
1e+20
  9
$PEXTMAX
 10
-1e+20
 20
-1e+20
 30
-1e+20
  9
$PLIMMIN
 10
0.0
 20
0.0
  9
$PLIMMAX
 10
420.0
 20
297.0
  9
$UNITMODE
 70
0
  9
$VISRETAIN
 70
1
  9
$PLINEGEN
 70
0
  9
$PSLTSCALE
 70
1
  9
$TREEDEPTH
 70
3020
  9
$CMLSTYLE
  2
Standard
  9
$CMLJUST
 70
0
  9
$CMLSCALE
 40
20.0
  9
$PROXYGRAPHICS
 70
1
  9
$MEASUREMENT
 70
1
  9
$CELWEIGHT
370
-1
  9
$ENDCAPS
280
0
  9
$JOINSTYLE
280
0
  9
$LWDISPLAY
290
1
  9
$INSUNITS
 70
4
  9
$HYPERLINKBASE
  1

  9
$STYLESHEET
  1

  9
$XEDIT
290
1
  9
$CEPSNTYPE
380
0
  9
$PSTYLEMODE
290
1
  9
$FINGERPRINTGUID
  2
{bcec9512-95e9-4015-ac50-1ede415cbd27}
  9
$VERSIONGUID
  2
{ED21A1D0-4E72-4BEC-B968-9C0DD13CA8A3}
  9
$EXTNAMES
290
1
  9
$PSVPSCALE
 40
0.0
  9
$OLESTARTUP
290
0
  0
ENDSEC
  0
SECTION
  2
CLASSES
  0
CLASS
  1
ACDBDICTIONARYWDFLT
  2
AcDbDictionaryWithDefault
  3
ObjectDBX Classes
 90
0
280
0
281
0
  0
CLASS
  1
VISUALSTYLE
  2
AcDbVisualStyle
  3
ObjectDBX Classes
 90
4095
280
0
281
0
  0
CLASS
  1
MATERIAL
  2
AcDbMaterial
  3
ObjectDBX Classes
 90
1153
280
0
281
0
  0
CLASS
  1
SCALE
  2
AcDbScale
  3
ObjectDBX Classes
 90
1153
280
0
281
0
  0
CLASS
  1
TABLESTYLE
  2
AcDbTableStyle
  3
ObjectDBX Classes
 90
4095
280
0
281
0
  0
CLASS
  1
MLEADERSTYLE
  2
AcDbMLeaderStyle
  3
ACDB_MLEADERSTYLE_CLASS
 90
4095
280
0
281
0
  0
CLASS
  1
SUN
  2
AcDbSun
  3
SCENEOE
 90
1153
280
0
281
0
  0
CLASS
  1
ACDBPLACEHOLDER
  2
AcDbPlaceHolder
  3
ObjectDBX Classes
 90
0
280
0
281
0
  0
CLASS
  1
LAYOUT
  2
AcDbLayout
  3
ObjectDBX Classes
 90
0
280
0
281
0
  0
CLASS
  1
DICTIONARYVAR
  2
AcDbDictionaryVar
  3
ObjectDBX Classes
 90
0
280
0
281
0
  0
CLASS
  1
CELLSTYLEMAP
  2
AcDbCellStyleMap
  3
ObjectDBX Classes
 90
1152
280
0
281
0
  0
CLASS
  1
MENTALRAYRENDERSETTINGS
  2
AcDbMentalRayRenderSettings
  3
SCENEOE
 90
1024
280
0
281
0
  0
CLASS
  1
ACDBDETAILVIEWSTYLE
  2
AcDbDetailViewStyle
  3
ObjectDBX Classes
 90
1025
280
0
281
0
  0
CLASS
  1
ACDBSECTIONVIEWSTYLE
  2
AcDbSectionViewStyle
  3
ObjectDBX Classes
 90
1025
280
0
281
0
  0
CLASS
  1
RASTERVARIABLES
  2
AcDbRasterVariables
  3
ISM
 90
0
280
0
281
0
  0
ENDSEC
  0
SECTION
  2
TABLES
  0
TABLE
  2
VPORT
  5
8
330
0
100
AcDbSymbolTable
 70
1
  0
VPORT
  5
29
330
8
100
AcDbSymbolTableRecord
100
AcDbViewportTableRecord
  2
*Active
 70
0
 10
0.0
 20
0.0
 11
1.0
 21
1.0
 12
-7.176e-07
 22
-7.2751020069
 13
0.0
 23
0.0
 14
10.0
 24
10.0
 15
10.0
 25
10.0
 16
0.0
 26
0.0
 36
1.0
 17
0.0
 27
0.0
 37
0.0
 40
90.2698269691
 41
2.498611264
 42
50.0
 43
0.0
 44
0.0
 50
0.0
 51
0.0
 71
0
 72
100
 73
1
 74
3
 75
0
 76
0
 77
0
 78
0
281
0
 65
1
110
0.0
120
0.0
130
0.0
111
1.0
121
0.0
131
0.0
112
0.0
122
1.0
132
0.0
 79
0
146
0.0
  0
ENDTAB
  0
TABLE
  2
LTYPE
  5
5
330
0
100
AcDbSymbolTable
 70
8
  0
LTYPE
  5
14
330
5
100
AcDbSymbolTableRecord
100
AcDbLinetypeTableRecord
  2
ByBlock
 70
0
  3

 72
65
 73
0
 40
0.0
  0
LTYPE
  5
15
330
5
100
AcDbSymbolTableRecord
100
AcDbLinetypeTableRecord
  2
ByLayer
 70
0
  3

 72
65
 73
0
 40
0.0
  0
LTYPE
  5
16
330
5
100
AcDbSymbolTableRecord
100
AcDbLinetypeTableRecord
  2
Continuous
 70
0
  3
Solid line
 72
65
 73
0
 40
0.0
  0
LTYPE
  5
6E
330
5
100
AcDbSymbolTableRecord
100
AcDbLinetypeTableRecord
  2
HIDDEN
 70
0
  3
Hidden __ __ __ __ __ __ __ __ __ __ __ __ __ __
 72
65
 73
2
 40
1.905
 49
1.27
 74
0
 49
-0.635
 74
0
  0
LTYPE
  5
6F
330
5
100
AcDbSymbolTableRecord
100
AcDbLinetypeTableRecord
  2
PHANTOM
 70
0
  3
Phantom ______  __  __  ______  __  __  ______
 72
65
 73
6
 40
12.7
 49
6.35
 74
0
 49
-1.27
 74
0
 49
1.27
 74
0
 49
-1.27
 74
0
 49
1.27
 74
0
 49
-1.27
 74
0
  0
LTYPE
  5
70
330
5
100
AcDbSymbolTableRecord
100
AcDbLinetypeTableRecord
  2
CENTER
 70
0
  3
Center ____ _ ____ _ ____ _ ____ _ ____ _ ____
 72
65
 73
4
 40
10.16
 49
6.35
 74
0
 49
-1.27
 74
0
 49
1.27
 74
0
 49
-1.27
 74
0
  0
LTYPE
  5
71
330
5
100
AcDbSymbolTableRecord
100
AcDbLinetypeTableRecord
  2
CENTERX2
 70
0
  3
Center (2x) ________  __  ________  __  _____
 72
65
 73
4
 40
20.32
 49
12.7
 74
0
 49
-2.54
 74
0
 49
2.54
 74
0
 49
-2.54
 74
0
  0
LTYPE
  5
72
330
5
100
AcDbSymbolTableRecord
100
AcDbLinetypeTableRecord
  2
DOT2
 70
0
  3
Dot (.5x) ........................................
 72
65
 73
2
 40
0.635
 49
0.0
 74
0
 49
-0.635
 74
0
  0
ENDTAB
  0
TABLE
  2
LAYER
  5
2
330
0
100
AcDbSymbolTable
 70
3
  0
LAYER
  5
10
330
2
100
AcDbSymbolTableRecord
100
AcDbLayerTableRecord
  2
0
 70
0
 62
7
  6
Continuous
370
-3
390
F
  0
LAYER
  5
73
330
2
100
AcDbSymbolTableRecord
100
AcDbLayerTableRecord
  2
MARCATURA
 70
0
 62
7
  6
Continuous
370
-1
390
F
  0
LAYER
  5
D4
330
2
100
AcDbSymbolTableRecord
100
AcDbLayerTableRecord
  2
Defpoints
 70
0
 62
7
  6
Continuous
290
0
370
-3
390
F
  0
ENDTAB
  0
TABLE
  2
STYLE
  5
3
330
0
100
AcDbSymbolTable
 70
1
  0
STYLE
  5
11
330
3
100
AcDbSymbolTableRecord
100
AcDbTextStyleTableRecord
  2
Standard
 70
0
 40
0.0
 41
1.0
 50
0.0
 71
0
 42
3.5
  3
txt
  4

  0
ENDTAB
  0
TABLE
  2
VIEW
  5
6
330
0
100
AcDbSymbolTable
 70
0
  0
ENDTAB
  0
TABLE
  2
UCS
  5
7
330
0
100
AcDbSymbolTable
 70
0
  0
ENDTAB
  0
TABLE
  2
APPID
  5
9
330
0
100
AcDbSymbolTable
 70
3
  0
APPID
  5
12
330
9
100
AcDbSymbolTableRecord
100
AcDbRegAppTableRecord
  2
ACAD
 70
0
  0
APPID
  5
100
330
9
100
AcDbSymbolTableRecord
100
AcDbRegAppTableRecord
  2
HATCHBACKGROUNDCOLOR
 70
0
  0
APPID
  5
101
330
9
100
AcDbSymbolTableRecord
100
AcDbRegAppTableRecord
  2
EZDXF
 70
0
  0
ENDTAB
  0
TABLE
  2
DIMSTYLE
  5
A
330
0
100
AcDbSymbolTable
 70
2
100
AcDbDimStyleTable
  0
DIMSTYLE
105
27
330
A
100
AcDbSymbolTableRecord
100
AcDbDimStyleTableRecord
  2
ISO-25
 70
0
  3

  4

 40
1.0
 41
2.5
 42
0.625
 43
3.75
 44
1.25
 45
0.0
 46
0.0
 47
0.0
 48
0.0
140
2.5
141
2.5
142
0.0
143
0.0393700787
144
1.0
145
0.0
146
1.0
147
0.625
148
0.0
 71
0
 72
0
 73
0
 74
0
 75
0
 76
0
 77
1
 78
8
 79
3
170
0
171
3
172
1
173
0
174
0
175
0
176
0
177
0
178
0
179
2
271
2
272
2
273
2
274
3
275
0
276
0
277
2
278
44
279
0
280
0
281
0
282
0
283
0
284
8
285
0
286
0
288
0
289
3
340
11
371
-2
372
-2
  0
DIMSTYLE
105
D5
330
A
100
AcDbSymbolTableRecord
100
AcDbDimStyleTableRecord
  2
Standard
 70
0
  3

  4

 40
1.0
 41
2.5
 42
0.625
 43
3.75
 44
1.25
 45
0.0
 46
0.0
 47
0.0
 48
0.0
140
2.5
141
2.5
142
0.0
143
0.03937007874
144
1.0
145
0.0
146
1.0
147
0.625
148
0.0
 71
0
 72
0
 73
0
 74
0
 75
0
 76
0
 77
1
 78
8
 79
3
170
0
171
3
172
1
173
0
174
0
175
0
176
0
177
0
178
0
179
2
271
2
272
2
273
2
274
3
275
0
276
0
277
2
278
44
279
0
280
0
281
0
282
0
283
0
284
8
285
0
286
0
288
0
289
3
371
-2
372
-2
  0
ENDTAB
  0
TABLE
  2
BLOCK_RECORD
  5
1
330
0
100
AcDbSymbolTable
 70
3
  0
BLOCK_RECORD
  5
1F
330
1
100
AcDbSymbolTableRecord
100
AcDbBlockTableRecord
  2
*Model_Space
340
22
  0
BLOCK_RECORD
  5
1B
330
1
100
AcDbSymbolTableRecord
100
AcDbBlockTableRecord
  2
*Paper_Space
340
1E
  0
BLOCK_RECORD
  5
23
330
1
100
AcDbSymbolTableRecord
100
AcDbBlockTableRecord
  2
*Paper_Space0
340
26
  0
ENDTAB
  0
ENDSEC
  0
SECTION
  2
BLOCKS
  0
BLOCK
  5
20
330
1F
100
AcDbEntity
  8
0
100
AcDbBlockBegin
  2
*Model_Space
 70
0
 10
0.0
 20
0.0
 30
0.0
  3
*Model_Space
  1

  0
ENDBLK
  5
21
330
1F
100
AcDbEntity
  8
0
100
AcDbBlockEnd
  0
BLOCK
  5
1C
330
1B
100
AcDbEntity
 67
1
  8
0
100
AcDbBlockBegin
  2
*Paper_Space
 70
0
 10
0.0
 20
0.0
 30
0.0
  3
*Paper_Space
  1

  0
ENDBLK
  5
1D
330
1B
100
AcDbEntity
 67
1
  8
0
100
AcDbBlockEnd
  0
BLOCK
  5
24
330
23
100
AcDbEntity
  8
0
100
AcDbBlockBegin
  2
*Paper_Space0
 70
0
 10
0.0
 20
0.0
 30
0.0
  3
*Paper_Space0
  1

  0
ENDBLK
  5
25
330
23
100
AcDbEntity
  8
0
100
AcDbBlockEnd
  0
ENDSEC
  0
SECTION
  2
ENTITIES
  0
LWPOLYLINE
  5
96
330
1F
100
AcDbEntity
  8
0
  6
Continuous
 62
7
370
25
100
AcDbPolyline
 90
141
 70
128
 10
0.0
 20
-8.0041000431
 10
-0.6505400401
 20
-7.9876354426
 10
-1.2997699791
 20
-7.9382747984
 10
-1.9463823544
 20
-7.8561175165
 10
-2.5890749746
 20
-7.7413290506
 10
-3.2265535424
 20
-7.5941405693
 10
-3.8575342607
 20
-7.4148484908
 10
-4.4807464184
 20
-7.2038138855
 10
-5.0949349492
 20
-6.9614617488
 10
-5.698862959
 20
-6.6882801458
 10
-6.2913142172
 20
-6.3848192279
 10
-6.8710956059
 20
-6.0516901249
 10
-7.4370395224
 20
-5.6895637146
 10
-7.9880062311
 20
-5.2991692713
 10
-8.5228861582
 20
-4.8812929975
 10
-9.040602127
 20
-4.4367764404
 10
-9.5401115261
 20
-3.9665147972
 10
-10.0204084103
 20
-3.4714551123
 10
-10.4805255255
 20
-2.95259437
 10
-10.9195362571
 20
-2.4109774867
 10
-11.3365564958
 20
-1.8476952067
 10
-11.7307464184
 20
-1.2638819058
 10
-12.101312179
 20
-0.660713306
 10
-12.4475075072
 20
-0.0394041088
 10
-12.7686352119
 20
0.5987944519
 10
-13.0640485846
 20
1.2525971291
 10
-13.333152702
 20
1.9206872512
 10
-13.5754056243
 20
2.6017193736
 10
-13.7903194863
 20
3.2943219882
 10
-13.9774614801
 20
3.9971002855
 10
-14.1364547266
 20
4.7086389637
 10
-14.2669790347
 20
5.4275050784
 10
-14.3687715456
 20
6.1522509291
 10
-14.4416272629
 20
6.8814169739
 10
-14.4853994648
 20
7.6135347696
 10
-14.5
 20
8.3471299283
 10
-14.4853994648
 20
9.0807250869
 10
-14.4416272629
 20
9.8128428826
 10
-14.3687715456
 20
10.5420089274
 10
-14.2669790347
 20
11.2667547781
 10
-14.1364547266
 20
11.9856208928
 10
-13.9774614801
 20
12.697159571
 10
-13.7903194863
 20
13.3999378683
 10
-13.5754056243
 20
14.092540483
 10
-13.333152702
 20
14.7735726053
 10
-13.0640485846
 20
15.4416627274
 10
-12.7686352119
 20
16.0954654046
 10
-12.4475075072
 20
16.7336639653
 10
-12.101312179
 20
17.3549731625
 10
-11.7307464184
 20
17.9581417623
 10
-11.3365564958
 20
18.5419550632
 10
-10.9195362571
 20
19.1052373432
 10
-10.4805255255
 20
19.6468542265
 10
-10.0204084103
 20
20.1657149688
 10
-9.5401115261
 20
20.6607746538
 10
-9.0406021269
 20
21.1310362969
 10
-8.5228861582
 20
21.575552854
 10
-7.9880062311
 20
21.9934291278
 10
-7.4370395224
 20
22.3838235711
 10
-6.8710956059
 20
22.7459499814
 10
-6.2913142172
 20
23.0790790844
 10
-5.698862959
 20
23.3825400023
 10
-5.0949349492
 20
23.6557216053
 10
-4.4807464184
 20
23.898073742
 10
-3.8575342607
 20
24.1091083473
 10
-3.2265535424
 20
24.2884004258
 10
-2.5890749746
 20
24.4355889071
 10
-1.9463823544
 20
24.550377373
 10
-1.2997699791
 20
24.6325346549
 10
-0.6505400401
 20
24.6818952991
 10
0.0
 20
24.6983598996
 10
0.6505400401
 20
24.6818952991
 10
1.2997699791
 20
24.6325346549
 10
1.9463823544
 20
24.550377373
 10
2.5890749746
 20
24.4355889071
 10
3.2265535424
 20
24.2884004258
 10
3.8575342607
 20
24.1091083473
 10
4.4807464184
 20
23.898073742
 10
5.0949349492
 20
23.6557216053
 10
5.698862959
 20
23.3825400023
 10
6.2913142172
 20
23.0790790844
 10
6.8710956059
 20
22.7459499814
 10
7.4370395224
 20
22.3838235711
 10
7.9880062311
 20
21.9934291278
 10
8.5228861582
 20
21.575552854
 10
9.040602127
 20
21.1310362969
 10
9.5401115261
 20
20.6607746538
 10
10.0204084103
 20
20.1657149688
 10
10.4805255255
 20
19.6468542265
 10
10.9195362571
 20
19.1052373432
 10
11.3365564958
 20
18.5419550632
 10
11.7307464184
 20
17.9581417623
 10
12.101312179
 20
17.3549731625
 10
12.4475075072
 20
16.7336639653
 10
12.7686352119
 20
16.0954654046
 10
13.0640485846
 20
15.4416627274
 10
13.333152702
 20
14.7735726053
 10
13.5754056243
 20
14.092540483
 10
13.7903194863
 20
13.3999378683
 10
13.9774614801
 20
12.697159571
 10
14.1364547266
 20
11.9856208928
 10
14.2669790347
 20
11.2667547781
 10
14.3687715456
 20
10.5420089274
 10
14.4416272629
 20
9.8128428826
 10
14.4853994648
 20
9.0807250869
 10
14.5
 20
8.3471299283
 10
14.4853994648
 20
7.6135347696
 10
14.4416272629
 20
6.8814169739
 10
14.3687715456
 20
6.1522509291
 10
14.2669790347
 20
5.4275050784
 10
14.1364547266
 20
4.7086389637
 10
13.9774614801
 20
3.9971002855
 10
13.7903194863
 20
3.2943219882
 10
13.5754056243
 20
2.6017193735
 10
13.333152702
 20
1.9206872512
 10
13.0640485846
 20
1.2525971291
 10
12.7686352119
 20
0.5987944519
 10
12.4475075072
 20
-0.0394041088
 10
12.101312179
 20
-0.660713306
 10
11.7307464184
 20
-1.2638819058
 10
11.3365564958
 20
-1.8476952067
 10
10.9195362571
 20
-2.4109774867
 10
10.4805255255
 20
-2.95259437
 10
10.0204084103
 20
-3.4714551123
 10
9.5401115261
 20
-3.9665147972
 10
9.040602127
 20
-4.4367764404
 10
8.5228861582
 20
-4.8812929975
 10
7.9880062311
 20
-5.2991692713
 10
7.4370395224
 20
-5.6895637146
 10
6.8710956059
 20
-6.0516901249
 10
6.2913142172
 20
-6.3848192279
 10
5.698862959
 20
-6.6882801458
 10
5.0949349492
 20
-6.9614617488
 10
4.4807464184
 20
-7.2038138855
 10
3.8575342607
 20
-7.4148484908
 10
3.2265535424
 20
-7.5941405693
 10
2.5890749746
 20
-7.7413290506
 10
1.9463823544
 20
-7.8561175165
 10
1.2997699791
 20
-7.9382747984
 10
0.6505400401
 20
-7.9876354426
 10
0.0
 20
-8.0041000431
  0
LINE
  5
99
330
1F
100
AcDbEntity
  8
0
  6
Continuous
 62
7
370
25
100
AcDbLine
 10
54.3232362749
 20
36.6480121529
 30
0.0
 11
54.0209494034
 21
36.974813174
 31
0.0
  0
LINE
  5
9A
330
1F
100
AcDbEntity
  8
0
  6
Continuous
 62
7
370
25
100
AcDbLine
 10
54.3232362749
 20
36.6480121529
 30
0.0
 11
54.8188345957
 21
36.5762879057
 31
0.0
  0
LINE
  5
9B
330
1F
100
AcDbEntity
  8
0
  6
Continuous
 62
7
370
25
100
AcDbLine
 10
55.3526037871
 20
36.3221868834
 30
0.0
 11
54.8188345957
 21
36.5762879057
 31
0.0
  0
LINE
  5
9C
330
1F
100
AcDbEntity
  8
0
  6
Continuous
 62
7
370
25
100
AcDbLine
 10
55.3526037871
 20
36.3221868834
 30
0.0
 11
55.7952810837
 21
36.0883317671
 31
0.0
  0
LINE
  5
9D
330
1F
100
AcDbEntity
  8
0
  6
Continuous
 62
7
370
25
100
AcDbLine
 10
56.602686956
 20
36.0862829989
 30
0.0
 11
55.7952810837
 21
36.0883317671
 31
0.0
  0
LINE
  5
9E
330
1F
100
AcDbEntity
  8
0
  6
Continuous
 62
7
370
25
100
AcDbLine
 10
56.602686956
 20
36.0862829989
 30
0.0
 11
56.9602608342
 21
35.7356254805
 31
0.0
  0
LINE
  5
9F
330
1F
100
AcDbEntity
  8
0
  6
Continuous
 62
7
370
25
100
AcDbLine
 10
57.7403563253
 20
35.9170364209
 30
0.0
 11
56.9602608342
 21
35.7356254805
 31
0.0
  0
LINE
  5
A0
330
1F
100
AcDbEntity
  8
0
  6
Continuous
 62
7
370
25
100
AcDbLine
 10
57.7403563253
 20
35.9170364209
 30
0.0
 11
110.5633357836
 21
-21.5245795476
 31
0.0
  0
LINE
  5
A1
330
1F
100
AcDbEntity
  8
0
  6
Continuous
 62
7
370
25
100
AcDbLine
 10
110.5633357836
 20
-21.5245795476
 30
0.0
 11
78.1377283729
 21
-51.3429817586
 31
0.0
  0
LINE
  5
A2
330
1F
100
AcDbEntity
  8
0
  6
Continuous
 62
7
370
25
100
AcDbLine
 10
77.3577784725
 20
-51.5250171879
 30
0.0
 11
78.1377283729
 21
-51.3429817586
 31
0.0
  0
LINE
  5
A3
330
1F
100
AcDbEntity
  8
0
  6
Continuous
 62
7
370
25
100
AcDbLine
 10
77.3577784725
 20
-51.5250171879
 30
0.0
 11
56.466750694
 21
-31.0381002109
 31
0.0
  0
LINE
  5
A4
330
1F
100
AcDbEntity
  8
0
  6
Continuous
 62
7
370
25
100
AcDbLine
 10
55.6593448248
 20
-31.0360509917
 30
0.0
 11
56.466750694
 21
-31.0381002109
 31
0.0
  0
LINE
  5
A5
330
1F
100
AcDbEntity
  8
0
  6
Continuous
 62
7
370
25
100
AcDbLine
 10
55.6593448248
 20
-31.0360509917
 30
0.0
 11
29.7871889417
 21
-17.3684514337
 31
0.0
  0
LINE
  5
A6
330
1F
100
AcDbEntity
  8
0
  6
Continuous
 62
7
370
25
100
AcDbLine
 10
29.2534197503
 20
-17.1143504113
 30
0.0
 11
29.7871889417
 21
-17.3684514337
 31
0.0
  0
LINE
  5
A7
330
1F
100
AcDbEntity
  8
0
  6
Continuous
 62
7
370
25
100
AcDbLine
 10
29.2534197503
 20
-17.1143504113
 30
0.0
 11
0.613532899
 21
-12.9695132774
 31
0.0
  0
LINE
  5
A8
330
1F
100
AcDbEntity
  8
0
  6
Continuous
 62
7
370
25
100
AcDbLine
 10
0.3112460275
 20
-12.6427122563
 30
0.0
 11
0.613532899
 21
-12.9695132774
 31
0.0
  0
LINE
  5
A9
330
1F
100
AcDbEntity
  8
0
  6
Continuous
 62
7
370
25
100
AcDbLine
 10
-0.311249235
 20
-12.6427122563
 30
0.0
 11
0.3112460275
 21
-12.6427122563
 31
0.0
  0
LINE
  5
AA
330
1F
100
AcDbEntity
  8
0
  6
Continuous
 62
7
370
25
100
AcDbLine
 10
-0.6135363401
 20
-12.9695147716
 30
0.0
 11
-0.311249235
 21
-12.6427122563
 31
0.0
  0
LINE
  5
AB
330
1F
100
AcDbEntity
  8
0
  6
Continuous
 62
7
370
25
100
AcDbLine
 10
-0.6135363401
 20
-12.9695147716
 30
0.0
 11
-29.2535058259
 21
-17.1143789076
 31
0.0
  0
LINE
  5
AC
330
1F
100
AcDbEntity
  8
0
  6
Continuous
 62
7
370
25
100
AcDbLine
 10
-29.7872766576
 20
-17.3684797199
 30
0.0
 11
-29.2535058259
 21
-17.1143789076
 31
0.0
  0
LINE
  5
AD
330
1F
100
AcDbEntity
  8
0
  6
Continuous
 62
7
370
25
100
AcDbLine
 10
-29.7872766576
 20
-17.3684797199
 30
0.0
 11
-55.6594790823
 21
-31.0361545103
 31
0.0
  0
LINE
  5
AE
330
1F
100
AcDbEntity
  8
0
  6
Continuous
 62
7
370
25
100
AcDbLine
 10
-56.4668860953
 20
-31.0382021874
 30
0.0
 11
-55.6594790823
 21
-31.0361545103
 31
0.0
  0
LINE
  5
AF
330
1F
100
AcDbEntity
  8
0
  6
Continuous
 62
7
370
25
100
AcDbLine
 10
-56.4668860953
 20
-31.0382021874
 30
0.0
 11
-77.3577832013
 21
-51.5250134273
 31
0.0
  0
LINE
  5
B0
330
1F
100
AcDbEntity
  8
0
  6
Continuous
 62
7
370
25
100
AcDbLine
 10
-78.1377297036
 20
-51.3429816442
 30
0.0
 11
-77.3577832013
 21
-51.5250134273
 31
0.0
  0
LINE
  5
B1
330
1F
100
AcDbEntity
  8
0
  6
Continuous
 62
7
370
25
100
AcDbLine
 10
-78.1377297036
 20
-51.3429816442
 30
0.0
 11
-110.5633372187
 21
-21.5245765953
 31
0.0
  0
LINE
  5
B2
330
1F
100
AcDbEntity
  8
0
  6
Continuous
 62
7
370
25
100
AcDbLine
 10
-110.5633372187
 20
-21.5245765953
 30
0.0
 11
-57.7403568846
 21
35.91703456
 31
0.0
  0
LINE
  5
B3
330
1F
100
AcDbEntity
  8
0
  6
Continuous
 62
7
370
25
100
AcDbLine
 10
-56.9602650618
 20
35.7356244584
 30
0.0
 11
-57.7403568846
 21
35.91703456
 31
0.0
  0
LINE
  5
B4
330
1F
100
AcDbEntity
  8
0
  6
Continuous
 62
7
370
25
100
AcDbLine
 10
-56.9602650618
 20
35.7356244584
 30
0.0
 11
-56.6026938913
 21
36.0862792454
 31
0.0
  0
LINE
  5
B5
330
1F
100
AcDbEntity
  8
0
  6
Continuous
 62
7
370
25
100
AcDbLine
 10
-55.7952868784
 20
36.0883269225
 30
0.0
 11
-56.6026938913
 21
36.0862792454
 31
0.0
  0
LINE
  5
B6
330
1F
100
AcDbEntity
  8
0
  6
Continuous
 62
7
370
25
100
AcDbLine
 10
-55.7952868784
 20
36.0883269225
 30
0.0
 11
-55.3526042498
 21
36.3221857069
 31
0.0
  0
LINE
  5
B7
330
1F
100
AcDbEntity
  8
0
  6
Continuous
 62
7
370
25
100
AcDbLine
 10
-54.8188337058
 20
36.5762863821
 30
0.0
 11
-55.3526042498
 21
36.3221857069
 31
0.0
  0
LINE
  5
B8
330
1F
100
AcDbEntity
  8
0
  6
Continuous
 62
7
370
25
100
AcDbLine
 10
-54.8188337058
 20
36.5762863821
 30
0.0
 11
-54.3232329581
 21
36.6480112515
 31
0.0
  0
LINE
  5
B9
330
1F
100
AcDbEntity
  8
0
  6
Continuous
 62
7
370
25
100
AcDbLine
 10
-54.0209452114
 20
36.974813174
 30
0.0
 11
-54.3232329581
 21
36.6480112515
 31
0.0
  0
LINE
  5
BA
330
1F
100
AcDbEntity
  8
0
  6
Continuous
 62
7
370
25
100
AcDbLine
 10
-54.0209452114
 20
36.974813174
 30
0.0
 11
54.0209494034
 21
36.974813174
 31
0.0
  0
LINE
  5
C3
330
1F
100
AcDbEntity
  8
MARCATURA
100
AcDbLine
 10
55.0857191914
 20
36.4492373946
 30
0.0
 11
29.520304346
 21
-17.2414009225
 31
0.0
  0
LINE
  5
C4
330
1F
100
AcDbEntity
  8
MARCATURA
100
AcDbLine
 10
56.1989840206
 20
36.0873071575
 30
0.0
 11
56.0630477571
 21
-31.0370756013
 31
0.0
  0
LINE
  5
C5
330
1F
100
AcDbEntity
  8
MARCATURA
100
AcDbLine
 10
57.3503085753
 20
35.8263309498
 30
0.0
 11
77.7477532352
 21
-51.433999517
 31
0.0
  0
LINE
  5
C6
330
1F
100
AcDbEntity
  8
MARCATURA
100
AcDbLine
 10
54.1720928391
 20
36.8114126635
 30
0.0
 11
0.4623894633
 21
-12.8061127669
 31
0.0
  0
LINE
  5
C7
330
1F
100
AcDbEntity
  8
MARCATURA
100
AcDbLine
 10
-56.0631825817
 20
-31.0371783489
 30
0.0
 11
-56.1989903777
 21
36.087303084
 31
0.0
  0
LINE
  5
C8
330
1F
100
AcDbEntity
  8
MARCATURA
100
AcDbLine
 10
-29.5203912382
 20
-17.241429312
 30
0.0
 11
-55.0857191217
 21
36.449235976
 31
0.0
  0
LINE
  5
C9
330
1F
100
AcDbEntity
  8
MARCATURA
100
AcDbLine
 10
-0.4623931084
 20
-12.8061132176
 30
0.0
 11
-54.1720890847
 21
36.8114122128
 31
0.0
  0
LINE
  5
CA
330
1F
100
AcDbEntity
  8
MARCATURA
100
AcDbLine
 10
-77.7477564464
 20
-51.4339975372
 30
0.0
 11
-57.3503109672
 21
35.8263295078
 31
0.0
  0
LINE
  5
D7
330
1F
100
AcDbEntity
  8
MARK
100
AcDbLine
 10
61.0224481915596
 20
-34.5250171879
 30
0.0
 11
61.0224481915596
 21
-27.445030758947997
 31
0.0
  0
LINE
  5
D8
330
1F
100
AcDbEntity
  8
MARK
100
AcDbLine
 10
61.0224481915596
 20
-27.445030758947997
 30
0.0
 11
63.677443102416596
 21
-27.445030758947997
 31
0.0
  0
LINE
  5
D9
330
1F
100
AcDbEntity
  8
MARK
100
AcDbLine
 10
63.677443102416596
 20
-27.445030758947997
 30
0.0
 11
64.5624414060356
 21
-28.330029062566997
 31
0.0
  0
LINE
  5
DA
330
1F
100
AcDbEntity
  8
MARK
100
AcDbLine
 10
64.5624414060356
 20
-28.330029062566997
 30
0.0
 11
64.5624414060356
 21
-30.100025669805
 31
0.0
  0
LINE
  5
DB
330
1F
100
AcDbEntity
  8
MARK
100
AcDbLine
 10
64.5624414060356
 20
-30.100025669805
 30
0.0
 11
63.677443102416596
 21
-30.985023973424
 31
0.0
  0
LINE
  5
DC
330
1F
100
AcDbEntity
  8
MARK
100
AcDbLine
 10
63.677443102416596
 20
-30.985023973424
 30
0.0
 11
61.0224481915596
 21
-30.985023973424
 31
0.0
  0
LINE
  5
DD
330
1F
100
AcDbEntity
  8
MARK
100
AcDbLine
 10
61.0224481915596
 20
-30.985023973424
 30
0.0
 11
63.677443102416596
 21
-30.985023973424
 31
0.0
  0
LINE
  5
DE
330
1F
100
AcDbEntity
  8
MARK
100
AcDbLine
 10
63.677443102416596
 20
-30.985023973424
 30
0.0
 11
64.5624414060356
 21
-31.870022277043
 31
0.0
  0
LINE
  5
DF
330
1F
100
AcDbEntity
  8
MARK
100
AcDbLine
 10
64.5624414060356
 20
-31.870022277043
 30
0.0
 11
64.5624414060356
 21
-33.640018884281
 31
0.0
  0
LINE
  5
E0
330
1F
100
AcDbEntity
  8
MARK
100
AcDbLine
 10
64.5624414060356
 20
-33.640018884281
 30
0.0
 11
63.677443102416596
 21
-34.5250171879
 31
0.0
  0
LINE
  5
E1
330
1F
100
AcDbEntity
  8
MARK
100
AcDbLine
 10
63.677443102416596
 20
-34.5250171879
 30
0.0
 11
61.0224481915596
 21
-34.5250171879
 31
0.0
  0
LINE
  5
E2
330
1F
100
AcDbEntity
  8
MARK
100
AcDbLine
 10
66.3324380132736
 20
-34.5250171879
 30
0.0
 11
66.3324380132736
 21
-27.445030758947997
 31
0.0
  0
LINE
  5
E3
330
1F
100
AcDbEntity
  8
MARK
100
AcDbLine
 10
66.3324380132736
 20
-27.445030758947997
 30
0.0
 11
68.9874329241306
 21
-27.445030758947997
 31
0.0
  0
LINE
  5
E4
330
1F
100
AcDbEntity
  8
MARK
100
AcDbLine
 10
68.9874329241306
 20
-27.445030758947997
 30
0.0
 11
69.8724312277496
 21
-28.330029062566997
 31
0.0
  0
LINE
  5
E5
330
1F
100
AcDbEntity
  8
MARK
100
AcDbLine
 10
69.8724312277496
 20
-28.330029062566997
 30
0.0
 11
69.8724312277496
 21
-30.100025669805
 31
0.0
  0
LINE
  5
E6
330
1F
100
AcDbEntity
  8
MARK
100
AcDbLine
 10
69.8724312277496
 20
-30.100025669805
 30
0.0
 11
68.9874329241306
 21
-30.985023973424
 31
0.0
  0
LINE
  5
E7
330
1F
100
AcDbEntity
  8
MARK
100
AcDbLine
 10
68.9874329241306
 20
-30.985023973424
 30
0.0
 11
66.3324380132736
 21
-30.985023973424
 31
0.0
  0
LINE
  5
E8
330
1F
100
AcDbEntity
  8
MARK
100
AcDbLine
 10
66.3324380132736
 20
-30.985023973424
 30
0.0
 11
68.9874329241306
 21
-30.985023973424
 31
0.0
  0
LINE
  5
E9
330
1F
100
AcDbEntity
  8
MARK
100
AcDbLine
 10
68.9874329241306
 20
-30.985023973424
 30
0.0
 11
69.8724312277496
 21
-31.870022277043
 31
0.0
  0
LINE
  5
EA
330
1F
100
AcDbEntity
  8
MARK
100
AcDbLine
 10
69.8724312277496
 20
-31.870022277043
 30
0.0
 11
69.8724312277496
 21
-33.640018884281
 31
0.0
  0
LINE
  5
EB
330
1F
100
AcDbEntity
  8
MARK
100
AcDbLine
 10
69.8724312277496
 20
-33.640018884281
 30
0.0
 11
68.9874329241306
 21
-34.5250171879
 31
0.0
  0
LINE
  5
EC
330
1F
100
AcDbEntity
  8
MARK
100
AcDbLine
 10
68.9874329241306
 20
-34.5250171879
 30
0.0
 11
66.3324380132736
 21
-34.5250171879
 31
0.0
  0
LINE
  5
ED
330
1F
100
AcDbEntity
  8
MARK
100
AcDbLine
 10
71.6424278349876
 20
-30.985023973424
 30
0.0
 11
73.7664237636732
 21
-30.985023973424
 31
0.0
  0
LINE
  5
EE
330
1F
100
AcDbEntity
  8
MARK
100
AcDbLine
 10
74.828421728016
 20
-34.5250171879
 30
0.0
 11
76.598418335254
 21
-34.5250171879
 31
0.0
  0
LINE
  5
EF
330
1F
100
AcDbEntity
  8
MARK
100
AcDbLine
 10
76.598418335254
 20
-34.5250171879
 30
0.0
 11
75.713420031635
 21
-34.5250171879
 31
0.0
  0
LINE
  5
F0
330
1F
100
AcDbEntity
  8
MARK
100
AcDbLine
 10
75.713420031635
 20
-34.5250171879
 30
0.0
 11
75.713420031635
 21
-27.445030758947997
 31
0.0
  0
LINE
  5
F1
330
1F
100
AcDbEntity
  8
MARK
100
AcDbLine
 10
75.713420031635
 20
-27.445030758947997
 30
0.0
 11
74.828421728016
 21
-27.445030758947997
 31
0.0
  0
LINE
  5
F2
330
1F
100
AcDbEntity
  8
MARK
100
AcDbLine
 10
74.828421728016
 20
-27.445030758947997
 30
0.0
 11
76.598418335254
 21
-27.445030758947997
 31
0.0
  0
LINE
  5
F3
330
1F
100
AcDbEntity
  8
MARK
100
AcDbLine
 10
77.483416638873
 20
-34.5250171879
 30
0.0
 11
77.483416638873
 21
-27.445030758947997
 31
0.0
  0
LINE
  5
F4
330
1F
100
AcDbEntity
  8
MARK
100
AcDbLine
 10
77.483416638873
 20
-27.445030758947997
 30
0.0
 11
81.023409853349
 21
-34.5250171879
 31
0.0
  0
LINE
  5
F5
330
1F
100
AcDbEntity
  8
MARK
100
AcDbLine
 10
81.023409853349
 20
-34.5250171879
 30
0.0
 11
81.023409853349
 21
-27.445030758947997
 31
0.0
  0
LINE
  5
F6
330
1F
100
AcDbEntity
  8
MARK
100
AcDbLine
 10
82.793406460587
 20
-30.985023973424
 30
0.0
 11
84.9174023892726
 21
-30.985023973424
 31
0.0
  0
LINE
  5
F7
330
1F
100
AcDbEntity
  8
MARK
100
AcDbLine
 10
85.97940035361539
 20
-34.5250171879
 30
0.0
 11
85.97940035361539
 21
-27.445030758947997
 31
0.0
  0
LINE
  5
F8
330
1F
100
AcDbEntity
  8
MARK
100
AcDbLine
 10
85.97940035361539
 20
-27.445030758947997
 30
0.0
 11
89.51939356809139
 21
-34.5250171879
 31
0.0
  0
LINE
  5
F9
330
1F
100
AcDbEntity
  8
MARK
100
AcDbLine
 10
89.51939356809139
 20
-34.5250171879
 30
0.0
 11
89.51939356809139
 21
-27.445030758947997
 31
0.0
  0
LINE
  5
FA
330
1F
100
AcDbEntity
  8
MARK
100
AcDbLine
 10
94.8293833898054
 20
-34.5250171879
 30
0.0
 11
91.2893901753294
 21
-34.5250171879
 31
0.0
  0
LINE
  5
FB
330
1F
100
AcDbEntity
  8
MARK
100
AcDbLine
 10
91.2893901753294
 20
-34.5250171879
 30
0.0
 11
91.2893901753294
 21
-30.985023973424
 31
0.0
  0
LINE
  5
FC
330
1F
100
AcDbEntity
  8
MARK
100
AcDbLine
 10
91.2893901753294
 20
-30.985023973424
 30
0.0
 11
94.8293833898054
 21
-30.985023973424
 31
0.0
  0
LINE
  5
FD
330
1F
100
AcDbEntity
  8
MARK
100
AcDbLine
 10
94.8293833898054
 20
-30.985023973424
 30
0.0
 11
91.2893901753294
 21
-30.985023973424
 31
0.0
  0
LINE
  5
FE
330
1F
100
AcDbEntity
  8
MARK
100
AcDbLine
 10
91.2893901753294
 20
-30.985023973424
 30
0.0
 11
91.2893901753294
 21
-27.445030758947997
 31
0.0
  0
LINE
  5
FF
330
1F
100
AcDbEntity
  8
MARK
100
AcDbLine
 10
91.2893901753294
 20
-27.445030758947997
 30
0.0
 11
94.8293833898054
 21
-27.445030758947997
 31
0.0
  0
ENDSEC
  0
SECTION
  2
OBJECTS
  0
DICTIONARY
  5
C
330
0
100
AcDbDictionary
281
1
  3
ACAD_GROUP
350
D
  3
ACAD_LAYOUT
350
1A
  3
ACAD_MLINESTYLE
350
17
  3
ACAD_PLOTSETTINGS
350
19
  3
ACAD_PLOTSTYLENAME
350
E
  3
ACAD_SCALELIST
350
47
  3
DWGPROPS
350
CB
  3
ACAD_COLOR
350
CC
  3
ACAD_MATERIAL
350
CD
  3
ACAD_MLEADERSTYLE
350
CE
  3
ACAD_TABLESTYLE
350
CF
  3
ACAD_VISUALSTYLE
350
D0
  3
EZDXF_META
350
102
  0
DICTIONARY
  5
D
102
{ACAD_REACTORS
330
C
102
}
330
C
100
AcDbDictionary
281
1
  0
DICTIONARY
  5
1A
102
{ACAD_REACTORS
330
C
102
}
330
C
100
AcDbDictionary
281
1
  3
Layout1
350
1E
  3
Layout2
350
26
  3
Model
350
22
  0
DICTIONARY
  5
17
102
{ACAD_REACTORS
330
C
102
}
330
C
100
AcDbDictionary
281
1
  3
Standard
350
18
  0
DICTIONARY
  5
19
102
{ACAD_REACTORS
330
C
102
}
330
C
100
AcDbDictionary
281
1
  0
ACDBDICTIONARYWDFLT
  5
E
102
{ACAD_REACTORS
330
C
102
}
330
C
100
AcDbDictionary
281
1
  3
Normal
350
F
100
AcDbDictionaryWithDefault
340
F
  0
DICTIONARY
  5
47
102
{ACAD_REACTORS
330
C
102
}
330
C
100
AcDbDictionary
281
1
  3
A0
350
48
  3
A1
350
49
  3
A2
350
4A
  3
A3
350
4B
  3
A4
350
4C
  3
A5
350
4D
  3
A6
350
4E
  3
A7
350
4F
  3
A8
350
50
  3
A9
350
51
  3
B0
350
52
  3
B1
350
53
  3
B2
350
54
  3
B3
350
55
  3
B4
350
56
  3
B5
350
57
  3
B6
350
58
  3
B7
350
59
  3
B8
350
5A
  3
B9
350
5B
  3
C0
350
5C
  3
C1
350
5D
  3
C2
350
5E
  3
C3
350
5F
  3
C4
350
60
  3
C5
350
61
  3
C6
350
62
  3
C7
350
63
  3
C8
350
64
  3
C9
350
65
  3
D0
350
66
  3
D1
350
67
  3
D2
350
68
  0
XRECORD
  5
CB
102
{ACAD_REACTORS
330
C
102
}
330
C
100
AcDbXrecord
280
1
  1
DWGPROPS COOKIE
  2

  3

  4

  6

  7

  8
utm
  9

300
=
301
=
302
=
303
=
304
=
305
=
306
=
307
=
308
=
309
=
 40
0.0
 41
2460486.492870914
 42
2460486.493004803
  1

 90
0
  0
LAYOUT
  5
1E
102
{ACAD_REACTORS
330
1A
102
}
330
1A
100
AcDbPlotSettings
  1

  2
none_device
  4

  6

 40
0.0
 41
0.0
 42
0.0
 43
0.0
 44
0.0
 45
0.0
 46
0.0
 47
0.0
 48
0.0
 49
0.0
140
0.0
141
0.0
142
1.0
143
1.0
 70
688
 72
1
 73
0
 74
5
  7

 75
16
 76
0
 77
2
 78
300
147
1.0
148
0.0
149
0.0
100
AcDbLayout
  1
Layout1
 70
1
 71
1
 10
0.0
 20
0.0
 11
420.0
 21
297.0
 12
0.0
 22
0.0
 32
0.0
 14
1e+20
 24
1e+20
 34
1e+20
 15
-1e+20
 25
-1e+20
 35
-1e+20
146
0.0
 13
0.0
 23
0.0
 33
0.0
 16
1.0
 26
0.0
 36
0.0
 17
0.0
 27
1.0
 37
0.0
 76
0
330
1B
  0
LAYOUT
  5
26
102
{ACAD_REACTORS
330
1A
102
}
330
1A
100
AcDbPlotSettings
  1

  2
none_device
  4

  6

 40
0.0
 41
0.0
 42
0.0
 43
0.0
 44
0.0
 45
0.0
 46
0.0
 47
0.0
 48
0.0
 49
0.0
140
0.0
141
0.0
142
1.0
143
1.0
 70
688
 72
1
 73
0
 74
5
  7

 75
16
 76
0
 77
2
 78
300
147
1.0
148
0.0
149
0.0
100
AcDbLayout
  1
Layout2
 70
1
 71
2
 10
0.0
 20
0.0
 11
0.0
 21
0.0
 12
0.0
 22
0.0
 32
0.0
 14
0.0
 24
0.0
 34
0.0
 15
0.0
 25
0.0
 35
0.0
146
0.0
 13
0.0
 23
0.0
 33
0.0
 16
1.0
 26
0.0
 36
0.0
 17
0.0
 27
1.0
 37
0.0
 76
0
330
23
  0
LAYOUT
  5
22
102
{ACAD_REACTORS
330
1A
102
}
330
1A
100
AcDbPlotSettings
  1

  2
none_device
  4
ANSI_A_(11.00_x_8.50_Inches)
  6

 40
6.35
 41
19.05
 42
6.35000508
 43
19.05000254
 44
279.4
 45
215.9
 46
133.3499983576
 47
98.0003792423
 48
0.0
 49
0.0
140
0.0
141
0.0
142
0.0492477902
143
1.0
 70
1696
 72
0
 73
0
 74
0
  7

 75
0
 76
0
 77
2
 78
300
147
0.0179189148
148
-1300.4909072572
149
0.0
100
AcDbLayout
  1
Model
 70
1
 71
0
 10
0.0
 20
0.0
 11
420.0
 21
297.0
 12
0.0
 22
0.0
 32
0.0
 14
-110.5633372187
 24
-51.5250171879
 34
0.0
 15
110.5633357836
 25
36.974813174
 35
0.0
146
0.0
 13
0.0
 23
0.0
 33
0.0
 16
1.0
 26
0.0
 36
0.0
 17
0.0
 27
1.0
 37
0.0
 76
0
330
1F
331
29
  0
MLINESTYLE
  5
18
102
{ACAD_REACTORS
330
17
102
}
330
17
100
AcDbMlineStyle
  2
Standard
 70
0
  3

 62
256
 51
90.0
 52
90.0
 71
2
 49
0.5
 62
256
  6
BYLAYER
 49
-0.5
 62
256
  6
BYLAYER
  0
ACDBPLACEHOLDER
  5
F
102
{ACAD_REACTORS
330
E
102
}
330
E
  0
SCALE
  5
48
102
{ACAD_REACTORS
330
47
102
}
330
47
100
AcDbScale
 70
0
300
1:1
140
1.0
141
1.0
290
1
  0
SCALE
  5
49
102
{ACAD_REACTORS
330
47
102
}
330
47
100
AcDbScale
 70
0
300
1:2
140
1.0
141
2.0
290
0
  0
SCALE
  5
4A
102
{ACAD_REACTORS
330
47
102
}
330
47
100
AcDbScale
 70
0
300
1:4
140
1.0
141
4.0
290
0
  0
SCALE
  5
4B
102
{ACAD_REACTORS
330
47
102
}
330
47
100
AcDbScale
 70
0
300
1:5
140
1.0
141
5.0
290
0
  0
SCALE
  5
4C
102
{ACAD_REACTORS
330
47
102
}
330
47
100
AcDbScale
 70
0
300
1:8
140
1.0
141
8.0
290
0
  0
SCALE
  5
4D
102
{ACAD_REACTORS
330
47
102
}
330
47
100
AcDbScale
 70
0
300
1:10
140
1.0
141
10.0
290
0
  0
SCALE
  5
4E
102
{ACAD_REACTORS
330
47
102
}
330
47
100
AcDbScale
 70
0
300
1:16
140
1.0
141
16.0
290
0
  0
SCALE
  5
4F
102
{ACAD_REACTORS
330
47
102
}
330
47
100
AcDbScale
 70
0
300
1:20
140
1.0
141
20.0
290
0
  0
SCALE
  5
50
102
{ACAD_REACTORS
330
47
102
}
330
47
100
AcDbScale
 70
0
300
1:30
140
1.0
141
30.0
290
0
  0
SCALE
  5
51
102
{ACAD_REACTORS
330
47
102
}
330
47
100
AcDbScale
 70
0
300
1:40
140
1.0
141
40.0
290
0
  0
SCALE
  5
52
102
{ACAD_REACTORS
330
47
102
}
330
47
100
AcDbScale
 70
0
300
1:50
140
1.0
141
50.0
290
0
  0
SCALE
  5
53
102
{ACAD_REACTORS
330
47
102
}
330
47
100
AcDbScale
 70
0
300
1:100
140
1.0
141
100.0
290
0
  0
SCALE
  5
54
102
{ACAD_REACTORS
330
47
102
}
330
47
100
AcDbScale
 70
0
300
2:1
140
2.0
141
1.0
290
0
  0
SCALE
  5
55
102
{ACAD_REACTORS
330
47
102
}
330
47
100
AcDbScale
 70
0
300
4:1
140
4.0
141
1.0
290
0
  0
SCALE
  5
56
102
{ACAD_REACTORS
330
47
102
}
330
47
100
AcDbScale
 70
0
300
8:1
140
8.0
141
1.0
290
0
  0
SCALE
  5
57
102
{ACAD_REACTORS
330
47
102
}
330
47
100
AcDbScale
 70
0
300
10:1
140
10.0
141
1.0
290
0
  0
SCALE
  5
58
102
{ACAD_REACTORS
330
47
102
}
330
47
100
AcDbScale
 70
0
300
100:1
140
100.0
141
1.0
290
0
  0
SCALE
  5
59
102
{ACAD_REACTORS
330
47
102
}
330
47
100
AcDbScale
 70
0
300
1/128" = 1'-0"
140
0.0078125
141
12.0
290
0
  0
SCALE
  5
5A
102
{ACAD_REACTORS
330
47
102
}
330
47
100
AcDbScale
 70
0
300
1/64" = 1'-0"
140
0.015625
141
12.0
290
0
  0
SCALE
  5
5B
102
{ACAD_REACTORS
330
47
102
}
330
47
100
AcDbScale
 70
0
300
1/32" = 1'-0"
140
0.03125
141
12.0
290
0
  0
SCALE
  5
5C
102
{ACAD_REACTORS
330
47
102
}
330
47
100
AcDbScale
 70
0
300
1/16" = 1'-0"
140
0.0625
141
12.0
290
0
  0
SCALE
  5
5D
102
{ACAD_REACTORS
330
47
102
}
330
47
100
AcDbScale
 70
0
300
3/32" = 1'-0"
140
0.09375
141
12.0
290
0
  0
SCALE
  5
5E
102
{ACAD_REACTORS
330
47
102
}
330
47
100
AcDbScale
 70
0
300
1/8" = 1'-0"
140
0.125
141
12.0
290
0
  0
SCALE
  5
5F
102
{ACAD_REACTORS
330
47
102
}
330
47
100
AcDbScale
 70
0
300
3/16" = 1'-0"
140
0.1875
141
12.0
290
0
  0
SCALE
  5
60
102
{ACAD_REACTORS
330
47
102
}
330
47
100
AcDbScale
 70
0
300
1/4" = 1'-0"
140
0.25
141
12.0
290
0
  0
SCALE
  5
61
102
{ACAD_REACTORS
330
47
102
}
330
47
100
AcDbScale
 70
0
300
3/8" = 1'-0"
140
0.375
141
12.0
290
0
  0
SCALE
  5
62
102
{ACAD_REACTORS
330
47
102
}
330
47
100
AcDbScale
 70
0
300
1/2" = 1'-0"
140
0.5
141
12.0
290
0
  0
SCALE
  5
63
102
{ACAD_REACTORS
330
47
102
}
330
47
100
AcDbScale
 70
0
300
3/4" = 1'-0"
140
0.75
141
12.0
290
0
  0
SCALE
  5
64
102
{ACAD_REACTORS
330
47
102
}
330
47
100
AcDbScale
 70
0
300
1" = 1'-0"
140
1.0
141
12.0
290
0
  0
SCALE
  5
65
102
{ACAD_REACTORS
330
47
102
}
330
47
100
AcDbScale
 70
0
300
1-1/2" = 1'-0"
140
1.5
141
12.0
290
0
  0
SCALE
  5
66
102
{ACAD_REACTORS
330
47
102
}
330
47
100
AcDbScale
 70
0
300
3" = 1'-0"
140
3.0
141
12.0
290
0
  0
SCALE
  5
67
102
{ACAD_REACTORS
330
47
102
}
330
47
100
AcDbScale
 70
0
300
6" = 1'-0"
140
6.0
141
12.0
290
0
  0
SCALE
  5
68
102
{ACAD_REACTORS
330
47
102
}
330
47
100
AcDbScale
 70
0
300
1'-0" = 1'-0"
140
12.0
141
12.0
290
0
  0
DICTIONARY
  5
CC
330
C
100
AcDbDictionary
281
1
  0
DICTIONARY
  5
CD
330
C
100
AcDbDictionary
281
1
  3
ByBlock
350
D1
  3
ByLayer
350
D2
  3
Global
350
D3
  0
DICTIONARY
  5
CE
330
C
100
AcDbDictionary
281
1
  3
Standard
350
D6
  0
DICTIONARY
  5
CF
330
C
100
AcDbDictionary
281
1
  0
DICTIONARY
  5
D0
330
C
100
AcDbDictionary
281
1
  0
MATERIAL
  5
D1
102
{ACAD_REACTORS
330
CD
102
}
330
CD
100
AcDbMaterial
  1
ByBlock
  2

 70
0
 40
1.0
 71
1
 41
1.0
 91
-1023410177
 42
1.0
 72
1
  3

 73
1
 74
1
 75
1
 44
0.5
 73
0
 45
1.0
 46
1.0
 77
1
  4

 78
1
 79
1
170
1
 48
1.0
171
1
  6

172
1
173
1
174
1
140
1.0
141
1.0
175
1
  7

176
1
177
1
178
1
143
1.0
179
1
  8

270
1
271
1
272
1
145
1.0
146
1.0
273
1
  9

274
1
275
1
276
1
 42
1.0
 72
1
  3

 73
1
 74
1
 75
1
 94
63
  0
MATERIAL
  5
D2
102
{ACAD_REACTORS
330
CD
102
}
330
CD
100
AcDbMaterial
  1
ByLayer
  2

 70
0
 40
1.0
 71
1
 41
1.0
 91
-1023410177
 42
1.0
 72
1
  3

 73
1
 74
1
 75
1
 44
0.5
 73
0
 45
1.0
 46
1.0
 77
1
  4

 78
1
 79
1
170
1
 48
1.0
171
1
  6

172
1
173
1
174
1
140
1.0
141
1.0
175
1
  7

176
1
177
1
178
1
143
1.0
179
1
  8

270
1
271
1
272
1
145
1.0
146
1.0
273
1
  9

274
1
275
1
276
1
 42
1.0
 72
1
  3

 73
1
 74
1
 75
1
 94
63
  0
MATERIAL
  5
D3
102
{ACAD_REACTORS
330
CD
102
}
330
CD
100
AcDbMaterial
  1
Global
  2

 70
0
 40
1.0
 71
1
 41
1.0
 91
-1023410177
 42
1.0
 72
1
  3

 73
1
 74
1
 75
1
 44
0.5
 73
0
 45
1.0
 46
1.0
 77
1
  4

 78
1
 79
1
170
1
 48
1.0
171
1
  6

172
1
173
1
174
1
140
1.0
141
1.0
175
1
  7

176
1
177
1
178
1
143
1.0
179
1
  8

270
1
271
1
272
1
145
1.0
146
1.0
273
1
  9

274
1
275
1
276
1
 42
1.0
 72
1
  3

 73
1
 74
1
 75
1
 94
63
  0
MLEADERSTYLE
  5
D6
102
{ACAD_REACTORS
330
CE
102
}
330
CE
100
AcDbMLeaderStyle
179
2
170
2
171
1
172
0
 90
2
 40
0.0
 41
0.0
173
1
 91
-1056964608
 92
-2
290
1
 42
2.0
291
1
 43
8.0
  3
Standard
 44
4.0
300

342
11
174
1
175
1
176
0
178
1
 93
-1056964608
 45
4.0
292
0
297
0
 46
4.0
 94
-1056964608
 47
1.0
 49
1.0
140
1.0
294
1
141
0.0
177
0
142
1.0
295
0
296
0
143
3.75
271
0
272
9
273
9
  0
DICTIONARY
  5
102
330
C
100
AcDbDictionary
280
1
281
1
  3
WRITTEN_BY_EZDXF
350
103
  0
DICTIONARYVAR
  5
103
330
102
100
DictionaryVariables
280
0
  1
1.4.3 @ 2026-02-22T13:53:58.543603+00:00
  0
ENDSEC
  0
EOF
