  0
SECTION
  2
HEADER
  9
$ACADVER
  1
AC1024
  9
$ACADMAINTVER
 70
6
  9
$DWGCODEPAGE
  3
ANSI_1252
  9
$LASTSAVEDBY
  1
ezdxf
  9
$INSBASE
 10
0.0
 20
0.0
 30
0.0
  9
$EXTMIN
 10
1e+20
 20
1e+20
 30
1e+20
  9
$EXTMAX
 10
-1e+20
 20
-1e+20
 30
-1e+20
  9
$LIMMIN
 10
0.0
 20
0.0
  9
$LIMMAX
 10
420.0
 20
297.0
  9
$ORTHOMODE
 70
0
  9
$REGENMODE
 70
1
  9
$FILLMODE
 70
1
  9
$QTEXTMODE
 70
0
  9
$MIRRTEXT
 70
1
  9
$LTSCALE
 40
1.0
  9
$ATTMODE
 70
1
  9
$TEXTSIZE
 40
2.5
  9
$TRACEWID
 40
1.0
  9
$TEXTSTYLE
  7
Standard
  9
$CLAYER
  8
0
  9
$CELTYPE
  6
ByLayer
  9
$CECOLOR
 62
256
  9
$CELTSCALE
 40
1.0
  9
$DISPSILH
 70
0
  9
$DIMSCALE
 40
1.0
  9
$DIMASZ
 40
2.5
  9
$DIMEXO
 40
0.625
  9
$DIMDLI
 40
3.75
  9
$DIMRND
 40
0.0
  9
$DIMDLE
 40
0.0
  9
$DIMEXE
 40
1.25
  9
$DIMTP
 40
0.0
  9
$DIMTM
 40
0.0
  9
$DIMTXT
 40
2.5
  9
$DIMCEN
 40
2.5
  9
$DIMTSZ
 40
0.0
  9
$DIMTOL
 70
0
  9
$DIMLIM
 70
0
  9
$DIMTIH
 70
0
  9
$DIMTOH
 70
0
  9
$DIMSE1
 70
0
  9
$DIMSE2
 70
0
  9
$DIMTAD
 70
1
  9
$DIMZIN
 70
8
  9
$DIMBLK
  1

  9
$DIMASO
 70
1
  9
$DIMSHO
 70
1
  9
$DIMPOST
  1

  9
$DIMAPOST
  1

  9
$DIMALT
 70
0
  9
$DIMALTD
 70
3
  9
$DIMALTF
 40
0.03937007874
  9
$DIMLFAC
 40
1.0
  9
$DIMTOFL
 70
1
  9
$DIMTVP
 40
0.0
  9
$DIMTIX
 70
0
  9
$DIMSOXD
 70
0
  9
$DIMSAH
 70
0
  9
$DIMBLK1
  1

  9
$DIMBLK2
  1

  9
$DIMSTYLE
  2
ISO-25
  9
$DIMCLRD
 70
0
  9
$DIMCLRE
 70
0
  9
$DIMCLRT
 70
0
  9
$DIMTFAC
 40
1.0
  9
$DIMGAP
 40
0.625
  9
$DIMJUST
 70
0
  9
$DIMSD1
 70
0
  9
$DIMSD2
 70
0
  9
$DIMTOLJ
 70
0
  9
$DIMTZIN
 70
8
  9
$DIMALTZ
 70
0
  9
$DIMALTTZ
 70
0
  9
$DIMUPT
 70
0
  9
$DIMDEC
 70
2
  9
$DIMTDEC
 70
2
  9
$DIMALTU
 70
2
  9
$DIMALTTD
 70
3
  9
$DIMTXSTY
  7
Standard
  9
$DIMAUNIT
 70
0
  9
$DIMADEC
 70
0
  9
$DIMALTRND
 40
0.0
  9
$DIMAZIN
 70
0
  9
$DIMDSEP
 70
44
  9
$DIMATFIT
 70
3
  9
$DIMFRAC
 70
0
  9
$DIMLDRBLK
  1

  9
$DIMLUNIT
 70
2
  9
$DIMLWD
 70
-2
  9
$DIMLWE
 70
-2
  9
$DIMTMOVE
 70
0
  9
$DIMFXL
 40
1.0
  9
$DIMFXLON
 70
0
  9
$DIMJOGANG
 40
0.785398163397
  9
$DIMTFILL
 70
0
  9
$DIMTFILLCLR
 70
0
  9
$DIMARCSYM
 70
0
  9
$DIMLTYPE
  6

  9
$DIMLTEX1
  6

  9
$DIMLTEX2
  6

  9
$DIMTXTDIRECTION
 70
0
  9
$LUNITS
 70
2
  9
$LUPREC
 70
4
  9
$SKETCHINC
 40
1.0
  9
$FILLETRAD
 40
10.0
  9
$AUNITS
 70
0
  9
$AUPREC
 70
2
  9
$MENU
  1
.
  9
$ELEVATION
 40
0.0
  9
$PELEVATION
 40
0.0
  9
$THICKNESS
 40
0.0
  9
$LIMCHECK
 70
0
  9
$CHAMFERA
 40
0.0
  9
$CHAMFERB
 40
0.0
  9
$CHAMFERC
 40
0.0
  9
$CHAMFERD
 40
0.0
  9
$SKPOLY
 70
0
  9
$TDCREATE
 40
2461129.7607407407
  9
$TDUCREATE
 40
2458532.153996898
  9
$TDUPDATE
 40
2461129.7607407407
  9
$TDUUPDATE
 40
2458532.1544311
  9
$TDINDWG
 40
0.0
  9
$TDUSRTIMER
 40
0.0
  9
$USRTIMER
 70
1
  9
$ANGBASE
 50
0.0
  9
$ANGDIR
 70
0
  9
$PDMODE
 70
0
  9
$PDSIZE
 40
0.0
  9
$PLINEWID
 40
0.0
  9
$SPLFRAME
 70
0
  9
$SPLINETYPE
 70
6
  9
$SPLINESEGS
 70
8
  9
$HANDSEED
  5
43
  9
$SURFTAB1
 70
6
  9
$SURFTAB2
 70
6
  9
$SURFTYPE
 70
6
  9
$SURFU
 70
6
  9
$SURFV
 70
6
  9
$UCSBASE
  2

  9
$UCSNAME
  2

  9
$UCSORG
 10
0.0
 20
0.0
 30
0.0
  9
$UCSXDIR
 10
1.0
 20
0.0
 30
0.0
  9
$UCSYDIR
 10
0.0
 20
1.0
 30
0.0
  9
$UCSORTHOREF
  2

  9
$UCSORTHOVIEW
 70
0
  9
$UCSORGTOP
 10
0.0
 20
0.0
 30
0.0
  9
$UCSORGBOTTOM
 10
0.0
 20
0.0
 30
0.0
  9
$UCSORGLEFT
 10
0.0
 20
0.0
 30
0.0
  9
$UCSORGRIGHT
 10
0.0
 20
0.0
 30
0.0
  9
$UCSORGFRONT
 10
0.0
 20
0.0
 30
0.0
  9
$UCSORGBACK
 10
0.0
 20
0.0
 30
0.0
  9
$PUCSBASE
  2

  9
$PUCSNAME
  2

  9
$PUCSORG
 10
0.0
 20
0.0
 30
0.0
  9
$PUCSXDIR
 10
1.0
 20
0.0
 30
0.0
  9
$PUCSYDIR
 10
0.0
 20
1.0
 30
0.0
  9
$PUCSORTHOREF
  2

  9
$PUCSORTHOVIEW
 70
0
  9
$PUCSORGTOP
 10
0.0
 20
0.0
 30
0.0
  9
$PUCSORGBOTTOM
 10
0.0
 20
0.0
 30
0.0
  9
$PUCSORGLEFT
 10
0.0
 20
0.0
 30
0.0
  9
$PUCSORGRIGHT
 10
0.0
 20
0.0
 30
0.0
  9
$PUCSORGFRONT
 10
0.0
 20
0.0
 30
0.0
  9
$PUCSORGBACK
 10
0.0
 20
0.0
 30
0.0
  9
$USERI1
 70
0
  9
$USERI2
 70
0
  9
$USERI3
 70
0
  9
$USERI4
 70
0
  9
$USERI5
 70
0
  9
$USERR1
 40
0.0
  9
$USERR2
 40
0.0
  9
$USERR3
 40
0.0
  9
$USERR4
 40
0.0
  9
$USERR5
 40
0.0
  9
$WORLDVIEW
 70
1
  9
$SHADEDGE
 70
3
  9
$SHADEDIF
 70
70
  9
$TILEMODE
 70
1
  9
$MAXACTVP
 70
64
  9
$PINSBASE
 10
0.0
 20
0.0
 30
0.0
  9
$PLIMCHECK
 70
0
  9
$PEXTMIN
 10
1e+20
 20
1e+20
 30
1e+20
  9
$PEXTMAX
 10
-1e+20
 20
-1e+20
 30
-1e+20
  9
$PLIMMIN
 10
0.0
 20
0.0
  9
$PLIMMAX
 10
420.0
 20
297.0
  9
$UNITMODE
 70
0
  9
$VISRETAIN
 70
1
  9
$PLINEGEN
 70
0
  9
$PSLTSCALE
 70
1
  9
$TREEDEPTH
 70
3020
  9
$CMLSTYLE
  2
Standard
  9
$CMLJUST
 70
0
  9
$CMLSCALE
 40
20.0
  9
$PROXYGRAPHICS
 70
1
  9
$MEASUREMENT
 70
1
  9
$CELWEIGHT
370
-1
  9
$ENDCAPS
280
0
  9
$JOINSTYLE
280
0
  9
$LWDISPLAY
290
0
  9
$INSUNITS
 70
6
  9
$HYPERLINKBASE
  1

  9
$STYLESHEET
  1

  9
$XEDIT
290
1
  9
$CEPSNTYPE
380
0
  9
$PSTYLEMODE
290
1
  9
$FINGERPRINTGUID
  2
{B20D118D-35DA-436C-A3DE-D7653A07DAF5}
  9
$VERSIONGUID
  2
{1ABC244C-4578-42BC-B98E-AAE3970E5082}
  9
$EXTNAMES
290
1
  9
$PSVPSCALE
 40
0.0
  9
$OLESTARTUP
290
0
  9
$SORTENTS
280
127
  9
$INDEXCTL
280
0
  9
$HIDETEXT
280
1
  9
$XCLIPFRAME
280
1
  9
$HALOGAP
280
0
  9
$OBSCOLOR
 70
257
  9
$OBSLTYPE
280
0
  9
$INTERSECTIONDISPLAY
280
0
  9
$INTERSECTIONCOLOR
 70
257
  9
$DIMASSOC
280
2
  9
$PROJECTNAME
  1

  9
$CAMERADISPLAY
290
0
  9
$LENSLENGTH
 40
50.0
  9
$CAMERAHEIGHT
 40
0.0
  9
$STEPSPERSEC
 40
24.0
  9
$STEPSIZE
 40
100.0
  9
$3DDWFPREC
 40
2.0
  9
$PSOLWIDTH
 40
0.005
  9
$PSOLHEIGHT
 40
0.08
  9
$LOFTANG1
 40
1.570796326795
  9
$LOFTANG2
 40
1.570796326795
  9
$LOFTMAG1
 40
0.0
  9
$LOFTMAG2
 40
0.0
  9
$LOFTPARAM
 70
7
  9
$LOFTNORMALS
280
1
  9
$LATITUDE
 40
37.795
  9
$LONGITUDE
 40
-122.394
  9
$NORTHDIRECTION
 40
0.0
  9
$TIMEZONE
 70
-8000
  9
$LIGHTGLYPHDISPLAY
280
1
  9
$TILEMODELIGHTSYNCH
280
1
  9
$CMATERIAL
347
20
  9
$SOLIDHIST
280
0
  9
$SHOWHIST
280
1
  9
$DWFFRAME
280
2
  9
$DGNFRAME
280
2
  9
$REALWORLDSCALE
290
1
  9
$INTERFERECOLOR
 62
256
  9
$CSHADOW
280
0
  9
$SHADOWPLANELOCATION
 40
0.0
  0
ENDSEC
  0
SECTION
  2
CLASSES
  0
CLASS
  1
ACDBDICTIONARYWDFLT
  2
AcDbDictionaryWithDefault
  3
ObjectDBX Classes
 90
0
 91
0
280
0
281
0
  0
CLASS
  1
SUN
  2
AcDbSun
  3
SCENEOE
 90
1153
 91
0
280
0
281
0
  0
CLASS
  1
VISUALSTYLE
  2
AcDbVisualStyle
  3
ObjectDBX Classes
 90
4095
 91
0
280
0
281
0
  0
CLASS
  1
MATERIAL
  2
AcDbMaterial
  3
ObjectDBX Classes
 90
1153
 91
0
280
0
281
0
  0
CLASS
  1
SCALE
  2
AcDbScale
  3
ObjectDBX Classes
 90
1153
 91
0
280
0
281
0
  0
CLASS
  1
TABLESTYLE
  2
AcDbTableStyle
  3
ObjectDBX Classes
 90
4095
 91
0
280
0
281
0
  0
CLASS
  1
MLEADERSTYLE
  2
AcDbMLeaderStyle
  3
ACDB_MLEADERSTYLE_CLASS
 90
4095
 91
0
280
0
281
0
  0
CLASS
  1
DICTIONARYVAR
  2
AcDbDictionaryVar
  3
ObjectDBX Classes
 90
0
 91
0
280
0
281
0
  0
CLASS
  1
CELLSTYLEMAP
  2
AcDbCellStyleMap
  3
ObjectDBX Classes
 90
1152
 91
0
280
0
281
0
  0
CLASS
  1
MENTALRAYRENDERSETTINGS
  2
AcDbMentalRayRenderSettings
  3
SCENEOE
 90
1024
 91
0
280
0
281
0
  0
CLASS
  1
ACDBDETAILVIEWSTYLE
  2
AcDbDetailViewStyle
  3
ObjectDBX Classes
 90
1025
 91
0
280
0
281
0
  0
CLASS
  1
ACDBSECTIONVIEWSTYLE
  2
AcDbSectionViewStyle
  3
ObjectDBX Classes
 90
1025
 91
0
280
0
281
0
  0
CLASS
  1
RASTERVARIABLES
  2
AcDbRasterVariables
  3
ISM
 90
0
 91
0
280
0
281
0
  0
CLASS
  1
LAYOUT
  2
AcDbLayout
  3
ObjectDBX Classes
 90
0
 91
0
280
0
281
0
  0
CLASS
  1
ACDBPLACEHOLDER
  2
AcDbPlaceHolder
  3
ObjectDBX Classes
 90
0
 91
0
280
0
281
0
  0
ENDSEC
  0
SECTION
  2
TABLES
  0
TABLE
  2
VPORT
  5
8
330
0
100
AcDbSymbolTable
 70
1
  0
VPORT
  5
23
330
8
100
AcDbSymbolTableRecord
100
AcDbViewportTableRecord
  2
*Active
 70
0
 10
0.0
 20
0.0
 11
1.0
 21
1.0
 12
0.0
 22
0.0
 13
0.0
 23
0.0
 14
0.5
 24
0.5
 15
0.5
 25
0.5
 16
0.0
 26
0.0
 36
1.0
 17
0.0
 27
0.0
 37
0.0
 40
1000.0
 41
1.34
 42
50.0
 43
0.0
 44
0.0
 50
0.0
 51
0.0
 71
0
 72
1000
 73
1
 74
3
 75
0
 76
0
 77
0
 78
0
281
0
 65
0
146
0.0
  0
ENDTAB
  0
TABLE
  2
LTYPE
  5
2
330
0
100
AcDbSymbolTable
 70
3
  0
LTYPE
  5
24
330
2
100
AcDbSymbolTableRecord
100
AcDbLinetypeTableRecord
  2
ByBlock
 70
0
  3

 72
65
 73
0
 40
0.0
  0
LTYPE
  5
25
330
2
100
AcDbSymbolTableRecord
100
AcDbLinetypeTableRecord
  2
ByLayer
 70
0
  3

 72
65
 73
0
 40
0.0
  0
LTYPE
  5
26
330
2
100
AcDbSymbolTableRecord
100
AcDbLinetypeTableRecord
  2
Continuous
 70
0
  3

 72
65
 73
0
 40
0.0
  0
ENDTAB
  0
TABLE
  2
LAYER
  5
1
330
0
100
AcDbSymbolTable
 70
2
  0
LAYER
  5
27
330
1
100
AcDbSymbolTableRecord
100
AcDbLayerTableRecord
  2
0
 70
0
 62
7
  6
Continuous
370
-3
390
13
347
21
  0
LAYER
  5
28
330
1
100
AcDbSymbolTableRecord
100
AcDbLayerTableRecord
  2
Defpoints
 70
0
 62
7
  6
Continuous
290
0
370
-3
390
13
347
21
  0
ENDTAB
  0
TABLE
  2
STYLE
  5
5
330
0
100
AcDbSymbolTable
 70
1
  0
STYLE
  5
29
330
5
100
AcDbSymbolTableRecord
100
AcDbTextStyleTableRecord
  2
Standard
 70
0
 40
0.0
 41
1.0
 50
0.0
 71
0
 42
2.5
  3
txt
  4

  0
ENDTAB
  0
TABLE
  2
VIEW
  5
7
330
0
100
AcDbSymbolTable
 70
0
  0
ENDTAB
  0
TABLE
  2
UCS
  5
6
330
0
100
AcDbSymbolTable
 70
0
  0
ENDTAB
  0
TABLE
  2
APPID
  5
3
330
0
100
AcDbSymbolTable
 70
4
  0
APPID
  5
2A
330
3
100
AcDbSymbolTableRecord
100
AcDbRegAppTableRecord
  2
ACAD
 70
0
  0
APPID
  5
3F
330
3
100
AcDbSymbolTableRecord
100
AcDbRegAppTableRecord
  2
HATCHBACKGROUNDCOLOR
 70
0
  0
APPID
  5
40
330
3
100
AcDbSymbolTableRecord
100
AcDbRegAppTableRecord
  2
EZDXF
 70
0
  0
APPID
  5
42
330
3
100
AcDbSymbolTableRecord
100
AcDbRegAppTableRecord
  2
FORGE
 70
0
  0
ENDTAB
  0
TABLE
  2
DIMSTYLE
  5
4
330
0
100
AcDbSymbolTable
 70
1
100
AcDbDimStyleTable
  0
DIMSTYLE
105
2B
330
4
100
AcDbSymbolTableRecord
100
AcDbDimStyleTableRecord
  2
Standard
 70
0
 40
1.0
 41
2.5
 42
0.625
 43
3.75
 44
1.25
 45
0.0
 46
0.0
 47
0.0
 48
0.0
 49
2.5
140
2.5
141
2.5
142
0.0
143
0.03937007874
144
1.0
145
0.0
146
1.0
147
0.625
148
0.0
 69
0
 70
0
 71
0
 72
0
 73
0
 74
0
 75
0
 76
0
 77
1
 78
8
 79
3
170
0
171
3
172
1
173
0
174
0
175
0
176
0
177
0
178
0
179
2
271
2
272
2
273
2
274
3
275
0
276
0
277
2
278
44
279
0
280
0
281
0
282
0
283
0
284
8
285
0
286
0
288
0
289
3
290
0
371
-2
372
-2
  0
ENDTAB
  0
TABLE
  2
BLOCK_RECORD
  5
9
330
0
100
AcDbSymbolTable
 70
2
  0
BLOCK_RECORD
  5
17
330
9
100
AcDbSymbolTableRecord
100
AcDbBlockTableRecord
  2
*Model_Space
340
1A
 70
0
280
1
281
0
  0
BLOCK_RECORD
  5
1B
330
9
100
AcDbSymbolTableRecord
100
AcDbBlockTableRecord
  2
*Paper_Space
340
1E
 70
0
280
1
281
0
  0
ENDTAB
  0
ENDSEC
  0
SECTION
  2
BLOCKS
  0
BLOCK
  5
18
330
17
100
AcDbEntity
  8
0
100
AcDbBlockBegin
  2
*Model_Space
 70
0
 10
0.0
 20
0.0
 30
0.0
  3
*Model_Space
  1

  0
ENDBLK
  5
19
330
17
100
AcDbEntity
  8
0
100
AcDbBlockEnd
  0
BLOCK
  5
1C
330
1B
100
AcDbEntity
  8
0
100
AcDbBlockBegin
  2
*Paper_Space
 70
0
 10
0.0
 20
0.0
 30
0.0
  3
*Paper_Space
  1

  0
ENDBLK
  5
1D
330
1B
100
AcDbEntity
  8
0
100
AcDbBlockEnd
  0
ENDSEC
  0
SECTION
  2
ENTITIES
  0
LWPOLYLINE
  5
2F
330
17
100
AcDbEntity
  8
OuterContour
 62
3
100
AcDbPolyline
 90
46
 70
1
 10
52.9303469937
 20
1740.0787948535
 10
52.9303469937
 20
95.1187948535
 10
68.91575811840491
 20
95.11879485350012
 42
-0.13661780492107972
 10
69.43034699370004
 20
96.0602561148339
 42
-0.4182503085555823
 10
72.2781055052
 20
96.0794634403
 10
72.2970502901
 20
96.09879485350001
 10
72.27791220427311
 20
96.07965676767311
 42
-0.41821015762397323
 10
72.25851155143391
 20
93.23209155710003
 42
-0.1366178049210796
 10
71.31705029009998
 20
92.71750268179998
 10
71.31705029009998
 20
80.2320915571
 10
71.31705029009998
 20
77.3653882607
 10
71.31705029009998
 20
60.86538826069999
 10
91.31705029009998
 20
60.86538826069999
 10
96.31705029009998
 20
65.8653882607
 10
496.2770502901
 20
65.8653882607
 10
496.2770502901
 20
77.3653882607
 10
496.2770502901
 20
80.2320915571
 10
496.2770502900999
 20
92.71750268180494
 42
-0.1366178049210796
 10
495.3355890287661
 20
93.23209155710003
 42
-0.4182503085555823
 10
495.3163817033
 20
96.07985006860001
 10
495.2970502901
 20
96.09879485350001
 10
495.3161883759269
 20
96.07965676767313
 42
-0.41821015762397323
 10
498.1637535865
 20
96.06025611483392
 42
-0.13661780492107967
 10
498.6783424618
 20
95.1187948535
 10
514.6637535864999
 20
95.1187948535
 10
514.6637535864999
 20
1740.0787948535
 10
498.6783424617951
 20
1740.0787948534999
 42
-0.1366178049210796
 10
498.1637535864999
 20
1739.1373335921662
 42
-0.41821015762397323
 10
495.31599507500846
 20
1739.11812626667
 42
3.417343332094326e-05
 10
495.31599507500846
 20
1739.11812626667
 42
-0.418170007839996
 10
495.3355890287661
 20
1741.9654981499
 42
-0.13661780492107972
 10
496.2770502901
 20
1742.4800870252
 10
496.2770502901
 20
1754.9654981499
 10
496.2770502901
 20
1757.8322014463
 10
496.2770502901
 20
1769.3322014463
 10
96.31705029009998
 20
1769.3322014463
 10
91.31705029009998
 20
1774.3322014463
 10
71.31705029009998
 20
1774.3322014463
 10
71.31705029009998
 20
1757.8322014463
 10
71.31705029009998
 20
1754.9654981499
 10
71.31705029010016
 20
1742.4800870251952
 42
-0.13661780492107975
 10
72.2585115514339
 20
1741.9654981499
 42
-0.418170007839996
 10
72.27791220427069
 20
1739.1179329393244
 42
3.417343375722135e-05
 10
72.2779122042707
 20
1739.1179329393244
 42
-0.4182101576234606
 10
69.43034699370003
 20
1739.1373335921662
 42
-0.13661780492107972
 10
68.9157581184
 20
1740.0787948535
1001
FORGE
1000
{"label": "6200012808_1", "source_file": "c:\\Users\\FEDERICO\\Documents\\Python_Scripts\\Projects\\DXF\\ARC\\6200012808 Sviluppo.dxf", "quantity": 1, "material": "S235JR EN 10025", "thickness_mm": 2.5, "bending_lines": 0, "total_engrave_length_mm": 0.0, "area_mm2": 271753.7756, "holes_count": 6, "outer_perimeter_mm": 4396.3936, "inner_perimeter_mm": 3993.3447, "total_perimeter_mm": 8389.7383, "bbox": {"minx": 52.9303, "miny": 60.8654, "maxx": 514.6638, "maxy": 1774.3322}}
  0
CIRCLE
  5
30
330
17
100
AcDbEntity
  8
Hole
  6
Continuous
 62
6
100
AcDbCircle
 10
487.7970502901
 20
310.0987948535
 30
0.0
 40
3.5
  0
CIRCLE
  5
31
330
17
100
AcDbEntity
  8
Hole
  6
Continuous
 62
6
100
AcDbCircle
 10
487.7970502901
 20
350.0987948535
 30
0.0
 40
3.5
  0
CIRCLE
  5
32
330
17
100
AcDbEntity
  8
Hole
  6
Continuous
 62
6
100
AcDbCircle
 10
487.7970502901
 20
1485.0987948535
 30
0.0
 40
3.5
  0
CIRCLE
  5
33
330
17
100
AcDbEntity
  8
Hole
  6
Continuous
 62
6
100
AcDbCircle
 10
487.7970502901
 20
1525.0987948535
 30
0.0
 40
3.5
  0
CIRCLE
  5
34
330
17
100
AcDbEntity
  8
Hole
  6
Continuous
 62
6
100
AcDbCircle
 10
98.7970502901
 20
917.5987948535
 30
0.0
 40
4.5
  0
LWPOLYLINE
  5
35
330
17
100
AcDbEntity
  8
InnerContour
 62
2
100
AcDbPolyline
 90
8
 70
1
 10
138.79703197194752
 20
1692.5987961899
 42
0.4142135623730946
 10
118.7970322083
 20
1672.5987959535
 10
118.79705005369998
 20
162.59879095354754
 42
0.4142135623730955
 10
138.7970502901
 20
142.5987911899
 10
428.7970686082525
 20
142.59879461720004
 42
0.414213558911793
 10
448.7970683719
 20
162.5987948535
 10
448.79705052650024
 20
1672.5987998535525
 42
0.414213562373095
 10
428.7970502901
 20
1692.5987996172
  0
MULTILEADER
  5
36
330
17
100
AcDbEntity
  8
Trash
  6
Continuous
 62
1
 92
384
310
800100000D0000000C00000016000000070000C30C00000033000000000000000C00000013000000993A00000C00000016000000070000C3E80000002600000083E4FC907C697840F5B8920D82795B40000000000000000000000000000000000000000000000000000000000000F03F000000000000F03F00000000000000
310
00000000000000000043004F0044004900430045003A00200036003200300030003000310032003800300038005F0031000000000014000000010000000000000000000840000000000000F03F0000000000000000000000000000F03F00000000000000000000000000000000000000000000000000000000010000002200
310
000000000000730069006D0070006C00650078002E007300680078000000000000000C00000033000000000000000C00000010000000010000000C00000016000000070000C30C000000130000009A3A00000C00000016000000070000C30C00000012000000000000000C00000017000000FFFFFFFF0C0000003300000000
310
000000
100
AcDbMLeader
270
2
300
CONTEXT_DATA{
 40
1.0
 10
388.5929117087
 20
111.3835628064
 30
0.0
 41
3.0
140
2.25
145
1.05
174
1
175
1
176
0
177
0
290
1
304
{\pxsm0.9;\fSolid Edge ISO|b0||i0||c0|p34;\W1.;CODICE: 6200012808_1\P}
 11
0.0
 21
0.0
 31
1.0
340
11
 12
390.5929117087
 22
112.8985628064
 32
0.0
 13
1.0
 23
0.0
 33
0.0
 42
0.0
 43
0.0
 44
0.0
 45
1.0
170
1
 90
-1023410169
171
1
172
1
 91
-939524096
141
1.5
 92
0
291
0
292
0
173
0
293
0
142
0.0
143
0.0
294
0
295
0
296
0
110
0.0
120
0.0
130
0.0
111
1.0
121
0.0
131
0.0
112
0.0
122
1.0
132
0.0
297
0
272
9
273
9
301
}
340
6C
 90
35052448
170
1
 91
-1056964608
341
14
171
-2
290
1
291
1
 41
0.0
342
7D
 42
4.0
172
2
343
11
173
1
 95
1
174
1
175
0
 92
-1073741824
292
0
 93
-1023410169
 10
1.0
 20
1.0
 30
1.0
 43
0.0
176
0
293
0
294
0
178
0
179
1
 45
1.0
271
0
272
9
273
9
1001
ACAD_MLEADERVER
1070
2
  0
MULTILEADER
  5
37
330
17
100
AcDbEntity
  8
Trash
  6
Continuous
 62
1
 92
376
310
780100000D0000000C00000016000000070000C30C00000033000000000000000C00000013000000993A00000C00000016000000070000C3E00000002600000008D0F4276BAD7740E8CDAA8C64DE5C40000000000000000000000000000000000000000000000000000000000000F03F000000000000F03F00000000000000
310
000000000000000000530050004500530053004F00520045003A00200032002C003500300020006D006D00000011000000010000000000000000000840000000000000F03F0000000000000000000000000000F03F000000000000000000000000000000000000000000000000000000000100000022000000000050007300
310
69006D0070006C00650078002E007300680078000000000018010C00000033000000000000000C00000010000000010000000C00000016000000070000C30C000000130000009A3A00000C00000016000000070000C30C00000012000000000000000C00000017000000FFFFFFFF0C0000003300000000000000
100
AcDbMLeader
270
2
300
CONTEXT_DATA{
 40
1.0
 10
387.6095897236
 20
116.7438870533
 30
0.0
 41
3.0
140
2.25
145
1.05
174
1
175
1
176
1
177
0
290
1
304
{\pxsm0.9;\fSolid Edge ISO|b0||i0||c0|p34;\W1.;SPESSORE: 2,50 mm\P}
 11
0.0
 21
0.0
 31
1.0
340
11
 12
402.9100897235999
 22
118.4748870533
 32
0.0
 13
1.0
 23
0.0
 33
0.0
 42
0.0
 43
0.0
 44
0.0
 45
1.0
170
1
 90
-1023410169
171
2
172
1
 91
-939524096
141
1.5
 92
0
291
0
292
0
173
0
293
0
142
0.0
143
0.0
294
0
295
0
296
0
110
0.0
120
0.0
130
0.0
111
1.0
121
0.0
131
0.0
112
0.0
122
1.0
132
0.0
297
0
272
9
273
9
301
}
340
6C
 90
35052192
170
1
 91
-1056964608
341
14
171
-2
290
1
291
1
 41
0.0
 42
4.0
172
2
343
11
173
1
 95
1
174
1
175
0
 92
-1073741824
292
0
 93
-1023410169
 10
1.0
 20
1.0
 30
1.0
 43
0.0
176
0
293
0
294
0
178
0
179
1
 45
1.0
271
0
272
9
273
9
1001
ACAD_MLEADERVER
1070
2
  0
MULTILEADER
  5
38
330
17
100
AcDbEntity
  8
Trash
  6
Continuous
 62
1
 92
364
310
6C0100000D0000000C00000016000000070000C30C00000033000000000000000C00000013000000993A00000C00000016000000070000C3D400000026000000FE3A5CCB340A7840F7527DD2D5335E40000000000000000000000000000000000000000000000000000000000000F03F000000000000F03F00000000000000
310
000000000000000000500045005A005A00490020004E00B0003A002000310000000B000000010000000000000000000840000000000000F03F0000000000000000000000000000F03F00000000000000000000000000000000000000000000000000000000010000002200000000000000730069006D0070006C0065007800
310
2E007300680078000000000000000C00000033000000000000000C00000010000000010000000C00000016000000070000C30C000000130000009A3A00000C00000016000000070000C30C00000012000000000000000C00000017000000FFFFFFFF0C0000003300000000000000
100
AcDbMLeader
270
2
300
CONTEXT_DATA{
 40
1.0
 10
387.8593178234
 20
122.3069256729
 30
0.0
 41
3.0
140
2.25
145
1.05
174
1
175
1
176
1
177
0
290
1
304
{\pxsm0.9;\fSolid Edge ISO|b0||i0||c0|p34;\W1.;PEZZI N°: 1\P}
 11
0.0
 21
0.0
 31
1.0
340
11
 12
397.2093178234
 22
123.8099256729
 32
0.0
 13
1.0
 23
0.0
 33
0.0
 42
0.0
 43
0.0
 44
0.0
 45
1.0
170
1
 90
-1023410169
171
2
172
1
 91
-939524096
141
1.5
 92
0
291
0
292
0
173
0
293
0
142
0.0
143
0.0
294
0
295
0
296
0
110
0.0
120
0.0
130
0.0
111
1.0
121
0.0
131
0.0
112
0.0
122
1.0
132
0.0
297
0
272
9
273
9
301
}
340
6C
 90
35052192
170
1
 91
-1056964608
341
14
171
-2
290
1
291
1
 41
0.0
 42
4.0
172
2
343
11
173
1
 95
1
174
1
175
0
 92
-1073741824
292
0
 93
-1023410169
 10
1.0
 20
1.0
 30
1.0
 43
0.0
176
0
293
0
294
0
178
0
179
1
 45
1.0
271
0
272
9
273
9
1001
ACAD_MLEADERVER
1070
2
  0
LINE
  5
39
330
17
100
AcDbEntity
  8
Trash
  6
CENTER2
 62
1
100
AcDbLine
 10
72.8636986419
 20
94.66544320530001
 30
0.0
 11
494.7304019383
 21
94.66544320530001
 31
0.0
  0
LINE
  5
3A
330
17
100
AcDbEntity
  8
Trash
  6
CENTER2
 62
1
100
AcDbLine
 10
496.7304019383
 20
96.6654432053
 30
0.0
 11
496.7304019383
 21
1738.5321465017
 31
0.0
  0
LINE
  5
3B
330
17
100
AcDbEntity
  8
Trash
  6
CENTER2
 62
1
100
AcDbLine
 10
70.8636986419
 20
96.6654432053
 30
0.0
 11
70.8636986419
 21
1738.5321465017
 31
0.0
  0
LINE
  5
3C
330
17
100
AcDbEntity
  8
Trash
  6
CENTER2
 62
1
100
AcDbLine
 10
72.8636986419
 20
1740.5321465017
 30
0.0
 11
494.7304019383
 21
1740.5321465017
 31
0.0
  0
LINE
  5
3D
330
17
100
AcDbEntity
  8
Trash
  6
CENTER2
 62
1
100
AcDbLine
 10
496.2770502901
 20
78.7987399089
 30
0.0
 11
71.31705029009998
 21
78.7987399089
 31
0.0
  0
LINE
  5
3E
330
17
100
AcDbEntity
  8
Trash
  6
CENTER2
 62
1
100
AcDbLine
 10
71.31705029009998
 20
1756.3988497981
 30
0.0
 11
496.2770502901
 21
1756.3988497981
 31
0.0
  0
ENDSEC
  0
SECTION
  2
OBJECTS
  0
DICTIONARY
  5
A
330
0
100
AcDbDictionary
281
1
  3
ACAD_COLOR
350
B
  3
ACAD_GROUP
350
C
  3
ACAD_LAYOUT
350
D
  3
ACAD_MATERIAL
350
E
  3
ACAD_MLEADERSTYLE
350
F
  3
ACAD_MLINESTYLE
350
10
  3
ACAD_PLOTSETTINGS
350
11
  3
ACAD_PLOTSTYLENAME
350
12
  3
ACAD_SCALELIST
350
14
  3
ACAD_TABLESTYLE
350
15
  3
ACAD_VISUALSTYLE
350
16
  3
EZDXF_META
350
2D
  0
DICTIONARY
  5
B
330
A
100
AcDbDictionary
281
1
  0
DICTIONARY
  5
C
330
A
100
AcDbDictionary
281
1
  0
DICTIONARY
  5
D
330
A
100
AcDbDictionary
281
1
  3
Model
350
1A
  3
Layout1
350
1E
  0
DICTIONARY
  5
E
330
A
100
AcDbDictionary
281
1
  3
ByBlock
350
1F
  3
ByLayer
350
20
  3
Global
350
21
  0
DICTIONARY
  5
F
330
A
100
AcDbDictionary
281
1
  3
Standard
350
2C
  0
DICTIONARY
  5
10
330
A
100
AcDbDictionary
281
1
  3
Standard
350
22
  0
DICTIONARY
  5
11
330
A
100
AcDbDictionary
281
1
  0
ACDBDICTIONARYWDFLT
  5
12
330
A
100
AcDbDictionary
281
1
  3
Normal
350
13
100
AcDbDictionaryWithDefault
340
13
  0
ACDBPLACEHOLDER
  5
13
330
12
  0
DICTIONARY
  5
14
330
A
100
AcDbDictionary
281
1
  0
DICTIONARY
  5
15
330
A
100
AcDbDictionary
281
1
  0
DICTIONARY
  5
16
330
A
100
AcDbDictionary
281
1
  0
LAYOUT
  5
1A
330
D
100
AcDbPlotSettings
  1

  4
A3
  6

 40
7.5
 41
20.0
 42
7.5
 43
20.0
 44
420.0
 45
297.0
 46
0.0
 47
0.0
 48
0.0
 49
0.0
140
0.0
141
0.0
142
1.0
143
1.0
 70
1024
 72
1
 73
0
 74
5
  7

 75
16
 76
0
 77
2
 78
300
147
1.0
148
0.0
149
0.0
100
AcDbLayout
  1
Model
 70
1
 71
0
 10
0.0
 20
0.0
 11
420.0
 21
297.0
 12
0.0
 22
0.0
 32
0.0
 14
1e+20
 24
1e+20
 34
1e+20
 15
-1e+20
 25
-1e+20
 35
-1e+20
146
0.0
 13
0.0
 23
0.0
 33
0.0
 16
1.0
 26
0.0
 36
0.0
 17
0.0
 27
1.0
 37
0.0
 76
1
330
17
  0
LAYOUT
  5
1E
330
D
100
AcDbPlotSettings
  1

  4
A3
  6

 40
7.5
 41
20.0
 42
7.5
 43
20.0
 44
420.0
 45
297.0
 46
0.0
 47
0.0
 48
0.0
 49
0.0
140
0.0
141
0.0
142
1.0
143
1.0
 70
0
 72
1
 73
0
 74
5
  7

 75
16
 76
0
 77
2
 78
300
147
1.0
148
0.0
149
0.0
100
AcDbLayout
  1
Layout1
 70
1
 71
1
 10
0.0
 20
0.0
 11
420.0
 21
297.0
 12
0.0
 22
0.0
 32
0.0
 14
1e+20
 24
1e+20
 34
1e+20
 15
-1e+20
 25
-1e+20
 35
-1e+20
146
0.0
 13
0.0
 23
0.0
 33
0.0
 16
1.0
 26
0.0
 36
0.0
 17
0.0
 27
1.0
 37
0.0
 76
1
330
1B
  0
MATERIAL
  5
1F
102
{ACAD_REACTORS
330
E
102
}
330
E
100
AcDbMaterial
  1
ByBlock
  2

 70
0
 40
1.0
 71
1
 41
1.0
 91
-1023410177
 42
1.0
 72
1
  3

 73
1
 74
1
 75
1
 44
0.5
 73
0
 45
1.0
 46
1.0
 77
1
  4

 78
1
 79
1
170
1
 48
1.0
171
1
  6

172
1
173
1
174
1
140
1.0
141
1.0
175
1
  7

176
1
177
1
178
1
143
1.0
179
1
  8

270
1
271
1
272
1
145
1.0
146
1.0
273
1
  9

274
1
275
1
276
1
 42
1.0
 72
1
  3

 73
1
 74
1
 75
1
 94
63
  0
MATERIAL
  5
20
102
{ACAD_REACTORS
330
E
102
}
330
E
100
AcDbMaterial
  1
ByLayer
  2

 70
0
 40
1.0
 71
1
 41
1.0
 91
-1023410177
 42
1.0
 72
1
  3

 73
1
 74
1
 75
1
 44
0.5
 73
0
 45
1.0
 46
1.0
 77
1
  4

 78
1
 79
1
170
1
 48
1.0
171
1
  6

172
1
173
1
174
1
140
1.0
141
1.0
175
1
  7

176
1
177
1
178
1
143
1.0
179
1
  8

270
1
271
1
272
1
145
1.0
146
1.0
273
1
  9

274
1
275
1
276
1
 42
1.0
 72
1
  3

 73
1
 74
1
 75
1
 94
63
  0
MATERIAL
  5
21
102
{ACAD_REACTORS
330
E
102
}
330
E
100
AcDbMaterial
  1
Global
  2

 70
0
 40
1.0
 71
1
 41
1.0
 91
-1023410177
 42
1.0
 72
1
  3

 73
1
 74
1
 75
1
 44
0.5
 73
0
 45
1.0
 46
1.0
 77
1
  4

 78
1
 79
1
170
1
 48
1.0
171
1
  6

172
1
173
1
174
1
140
1.0
141
1.0
175
1
  7

176
1
177
1
178
1
143
1.0
179
1
  8

270
1
271
1
272
1
145
1.0
146
1.0
273
1
  9

274
1
275
1
276
1
 42
1.0
 72
1
  3

 73
1
 74
1
 75
1
 94
63
  0
MLINESTYLE
  5
22
102
{ACAD_REACTORS
330
10
102
}
330
10
100
AcDbMlineStyle
  2
Standard
 70
0
  3

 62
256
 51
90.0
 52
90.0
 71
2
 49
0.5
 62
256
  6
BYLAYER
 49
-0.5
 62
256
  6
BYLAYER
  0
MLEADERSTYLE
  5
2C
102
{ACAD_REACTORS
330
F
102
}
330
F
100
AcDbMLeaderStyle
179
2
170
2
171
1
172
0
 90
2
 40
0.0
 41
0.0
173
1
 91
-1056964608
 92
-2
290
1
 42
2.0
291
1
 43
8.0
  3
Standard
 44
4.0
300

342
29
174
1
175
1
176
0
178
1
 93
-1056964608
 45
4.0
292
0
297
0
 46
4.0
 94
-1056964608
 47
1.0
 49
1.0
140
1.0
294
1
141
0.0
177
0
142
1.0
295
0
296
0
143
3.75
271
0
272
9
273
9
  0
DICTIONARY
  5
2D
330
A
100
AcDbDictionary
280
1
281
1
  3
CREATED_BY_EZDXF
350
2E
  3
WRITTEN_BY_EZDXF
350
41
  0
DICTIONARYVAR
  5
2E
330
2D
100
DictionaryVariables
280
0
  1
1.4.3 @ 2026-03-29T16:15:28.048112+00:00
  0
DICTIONARYVAR
  5
41
330
2D
100
DictionaryVariables
280
0
  1
1.4.3 @ 2026-03-29T16:15:28.108164+00:00
  0
ENDSEC
  0
EOF
